Radio-Canada-Italic-subset-sam.ufo
<glyph name="percent" format="1">
  <advance width="943"/>
  <unicode hex="0025"/>
  <outline>
    <contour>
      <point x="185.10429894507146" y="518.0" type="curve" smooth="yes"/>
      <point x="162.3607468463791" y="411.0"/>
      <point x="223.63156128279746" y="337.0"/>
      <point x="317.63156128279746" y="337.0" type="curve" smooth="yes"/>
      <point x="411.63156128279746" y="337.0"/>
      <point x="504.36074684637913" y="411.0"/>
      <point x="527.1042989450715" y="518.0" type="curve" smooth="yes"/>
      <point x="549.8478510437639" y="625.0"/>
      <point x="488.78959316901546" y="700.0"/>
      <point x="394.78959316901546" y="700.0" type="curve" smooth="yes"/>
      <point x="300.78959316901546" y="700.0"/>
      <point x="207.84785104376382" y="625.0"/>
    </contour>
    <contour>
      <point x="272.1042989450715" y="518.0" type="curve" smooth="yes"/>
      <point x="286.34558857696294" y="585.0"/>
      <point x="332.27296416710385" y="627.0"/>
      <point x="379.27296416710385" y="627.0" type="curve" smooth="yes"/>
      <point x="426.27296416710385" y="627.0"/>
      <point x="454.34558857696294" y="585.0"/>
      <point x="440.1042989450715" y="518.0" type="curve" smooth="yes"/>
      <point x="425.86300931318" y="451.0"/>
      <point x="380.1481902847091" y="410.0"/>
      <point x="333.1481902847091" y="410.0" type="curve" smooth="yes"/>
      <point x="286.1481902847091" y="410.0"/>
      <point x="257.86300931318" y="451.0"/>
    </contour>
    <contour>
      <point x="198.0" y="0.0" type="line"/>
      <point x="295.0" y="0.0" type="line"/>
      <point x="891.6640275523152" y="690.0" type="line"/>
      <point x="794.6640275523152" y="690.0" type="line"/>
    </contour>
    <contour>
      <point x="562.3471720455738" y="171.0" type="curve" smooth="yes"/>
      <point x="539.6036199468814" y="64.0"/>
      <point x="600.8744343832998" y="-10.0"/>
      <point x="694.8744343832998" y="-10.0" type="curve" smooth="yes"/>
      <point x="788.8744343832998" y="-10.0"/>
      <point x="881.6036199468814" y="64.0"/>
      <point x="904.3471720455738" y="171.0" type="curve" smooth="yes"/>
      <point x="927.0907241442661" y="278.0"/>
      <point x="866.0324662695178" y="353.0"/>
      <point x="772.0324662695178" y="353.0" type="curve" smooth="yes"/>
      <point x="678.0324662695178" y="353.0"/>
      <point x="585.0907241442661" y="278.0"/>
    </contour>
    <contour>
      <point x="649.3471720455738" y="171.0" type="curve" smooth="yes"/>
      <point x="663.5884616774653" y="238.0"/>
      <point x="709.5158372676062" y="280.0"/>
      <point x="756.5158372676062" y="280.0" type="curve" smooth="yes"/>
      <point x="803.5158372676062" y="280.0"/>
      <point x="831.5884616774653" y="238.0"/>
      <point x="817.3471720455738" y="171.0" type="curve" smooth="yes"/>
      <point x="803.1058824136823" y="104.0"/>
      <point x="757.3910633852114" y="63.0"/>
      <point x="710.3910633852114" y="63.0" type="curve" smooth="yes"/>
      <point x="663.3910633852114" y="63.0"/>
      <point x="635.1058824136823" y="104.0"/>
    </contour>
  </outline>
</glyph>
<glyph name="ampersand" format="1">
  <advance width="660"/>
  <unicode hex="0026"/>
  <outline>
    <contour>
      <point x="84.13461548390376" y="170.0" type="curve" smooth="yes"/>
      <point x="60.75339370020133" y="60.0"/>
      <point x="127.87443438329979" y="-10.0"/>
      <point x="247.87443438329979" y="-10.0" type="curve" smooth="yes"/>
      <point x="427.8744343832998" y="-10.0"/>
      <point x="569.7579186338031" y="140.0"/>
      <point x="661.6414028843064" y="290.0" type="curve"/>
      <point x="588.0180997344071" y="320.0" type="line"/>
      <point x="508.260181100604" y="180.0"/>
      <point x="404.87895931690156" y="70.0"/>
      <point x="274.87895931690156" y="70.0" type="curve" smooth="yes"/>
      <point x="204.87895931690156" y="70.0"/>
      <point x="165.38122178370244" y="110.0"/>
      <point x="178.13461548390376" y="170.0" type="curve" smooth="yes"/>
      <point x="188.76244356740486" y="220.0"/>
      <point x="226.54004540422588" y="266.0"/>
      <point x="293.76696850100666" y="300.0" type="curve" smooth="yes"/>
      <point x="450.7714934346084" y="380.0" type="line" smooth="yes"/>
      <point x="529.2737559014092" y="420.0"/>
      <point x="587.9015839849104" y="470.0"/>
      <point x="602.7805433018119" y="540.0" type="curve" smooth="yes"/>
      <point x="619.7850682354137" y="620.0"/>
      <point x="568.7895931690155" y="700.0"/>
      <point x="458.78959316901546" y="700.0" type="curve" smooth="yes"/>
      <point x="348.78959316901546" y="700.0"/>
      <point x="261.78506823541375" y="620.0"/>
      <point x="242.65497768511173" y="530.0" type="curve" smooth="yes"/>
      <point x="227.77601836821017" y="460.0"/>
      <point x="260.02262466800886" y="400.0"/>
      <point x="294.39479658450773" y="350.0" type="curve" smooth="yes"/>
      <point x="530.0" y="0.0" type="line"/>
      <point x="650.0" y="0.0" type="line"/>
      <point x="380.02262466800886" y="400.0" type="line" smooth="yes"/>
      <point x="345.86300931318" y="451.0"/>
      <point x="322.02714960161063" y="480.0"/>
      <point x="332.6549776851117" y="530.0" type="curve" smooth="yes"/>
      <point x="343.28280576861283" y="580.0"/>
      <point x="386.78506823541375" y="620.0"/>
      <point x="441.78506823541375" y="620.0" type="curve" smooth="yes"/>
      <point x="496.78506823541375" y="620.0"/>
      <point x="523.2828057686129" y="580.0"/>
      <point x="512.6549776851117" y="530.0" type="curve" smooth="yes"/>
      <point x="504.15271521831085" y="490.0"/>
      <point x="473.8388011765603" y="465.0"/>
      <point x="423.5248871348097" y="440.0" type="curve" smooth="yes"/>
      <point x="260.52036220120794" y="360.0" type="line" smooth="yes"/>
      <point x="166.74276036438695" y="314.0"/>
      <point x="101.13914041750553" y="250.0"/>
    </contour>
  </outline>
</glyph>
<glyph name="quotesingle" format="1">
  <advance width="232"/>
  <unicode hex="0027"/>
  <outline>
    <contour>
      <point x="218.04072440241592" y="720.0" type="line"/>
      <point x="181.90158398491042" y="470.0" type="line"/>
      <point x="249.90158398491042" y="470.0" type="line"/>
      <point x="320.0407244024159" y="720.0" type="line"/>
    </contour>
  </outline>
</glyph>
<glyph name="comma" format="1">
  <advance width="222"/>
  <unicode hex="002C"/>
  <outline>
    <contour>
      <point x="26.179298557846792" y="-145.0" type="line"/>
      <point x="82.17929855784679" y="-145.0" type="line"/>
      <point x="152.68608595824944" y="-25.0" type="line" smooth="yes"/>
      <point x="168.42511312334005" y="2.0"/>
      <point x="178.67624435674048" y="22.0"/>
      <point x="183.35248871348097" y="44.0" type="curve" smooth="yes"/>
      <point x="192.91753398863196" y="89.0"/>
      <point x="172.44400459205255" y="115.0"/>
      <point x="135.44400459205255" y="115.0" type="curve" smooth="yes"/>
      <point x="100.44400459205255" y="115.0"/>
      <point x="66.91753398863197" y="89.0"/>
      <point x="59.265497768511175" y="53.0" type="curve" smooth="yes"/>
      <point x="52.25113123340044" y="20.0"/>
      <point x="68.0" y="0.0"/>
      <point x="90.51210406830984" y="-7.0" type="curve"/>
    </contour>
  </outline>
</glyph>
<glyph name="one" format="1">
  <advance width="660"/>
  <unicode hex="0031"/>
  <outline>
    <contour>
      <point x="112.0" y="0.0" type="line"/>
      <point x="548.0" y="0.0" type="line"/>
      <point x="565.2170814952718" y="81.0" type="line"/>
      <point x="129.2170814952718" y="81.0" type="line"/>
    </contour>
    <contour>
      <point x="239.32138044034326" y="599.0" type="line"/>
      <point x="256.74196863008154" y="521.0" type="line"/>
      <point x="470.4469460570435" y="609.0" type="line"/>
      <point x="459.66402755231525" y="690.0" type="line"/>
    </contour>
    <contour>
      <point x="287.0" y="0.0" type="line"/>
      <point x="383.0" y="0.0" type="line"/>
      <point x="529.6640275523152" y="690.0" type="line"/>
      <point x="459.66402755231525" y="690.0" type="line"/>
      <point x="422.39852978380407" y="637.0" type="line"/>
    </contour>
  </outline>
</glyph>
<glyph name="two" format="1">
  <advance width="660"/>
  <unicode hex="0032"/>
  <outline>
    <contour>
      <point x="207.983258261973" y="588.0" type="curve"/>
      <point x="259.1670817534216" y="523.0" type="line"/>
      <point x="318.0702492069428" y="579.0"/>
      <point x="372.4469460570435" y="609.0"/>
      <point x="443.4469460570435" y="609.0" type="curve"/>
      <point x="530.4469460570435" y="609.0"/>
      <point x="564.3312220418522" y="552.0"/>
      <point x="550.7276020949707" y="488.0" type="curve"/>
      <point x="539.2495477647896" y="434.0"/>
      <point x="511.23518122967886" y="401.0"/>
      <point x="408.167873487727" y="316.0" type="curve" smooth="yes"/>
      <point x="106.02873307022146" y="66.0" type="line"/>
      <point x="143.0" y="0.0" type="line"/>
      <point x="458.13914041750553" y="250.0" type="line" smooth="yes"/>
      <point x="589.2450228311878" y="354.0"/>
      <point x="635.2737559014092" y="420.0"/>
      <point x="649.7276020949707" y="488.0" type="curve"/>
      <point x="676.2971723037235" y="613.0"/>
      <point x="593.7895931690155" y="700.0"/>
      <point x="465.78959316901546" y="700.0" type="curve" smooth="yes"/>
      <point x="368.78959316901546" y="700.0"/>
      <point x="286.0747741405446" y="659.0"/>
    </contour>
    <contour>
      <point x="92.0" y="0.0" type="line"/>
      <point x="556.0" y="0.0" type="line"/>
      <point x="574.2798643036219" y="86.0" type="line"/>
      <point x="156.2798643036219" y="86.0" type="line"/>
      <point x="106.02873307022146" y="66.0" type="line"/>
    </contour>
  </outline>
</glyph>
<glyph name="three" format="1">
  <advance width="660"/>
  <unicode hex="0033"/>
  <outline>
    <contour>
      <point x="90.85475118028185" y="84.0" type="line"/>
      <point x="140.25113123340043" y="20.0"/>
      <point x="210.87443438329979" y="-10.0"/>
      <point x="306.8744343832998" y="-10.0" type="curve"/>
      <point x="443.8744343832998" y="-10.0"/>
      <point x="576.0287330702215" y="66.0"/>
      <point x="605.5740951423545" y="205.0" type="curve" smooth="yes"/>
      <point x="634.2692309678075" y="340.0"/>
      <point x="546.723077161369" y="408.0"/>
      <point x="409.723077161369" y="408.0" type="curve" smooth="yes"/>
      <point x="350.723077161369" y="408.0" type="line"/>
      <point x="293.89705905130864" y="390.0" type="line"/>
      <point x="280.9311087894373" y="329.0" type="line"/>
      <point x="363.9311087894373" y="329.0" type="line" smooth="yes"/>
      <point x="460.9311087894373" y="329.0"/>
      <point x="523.1535069526162" y="283.0"/>
      <point x="506.5740951423545" y="205.0" type="curve" smooth="yes"/>
      <point x="489.14445708541274" y="123.0"/>
      <point x="412.21708149527177" y="81.0"/>
      <point x="326.21708149527177" y="81.0" type="curve"/>
      <point x="255.2170814952718" y="81.0"/>
      <point x="203.89332585201228" y="103.0"/>
      <point x="170.30859737384336" y="152.0" type="curve"/>
    </contour>
    <contour>
      <point x="222.32138044034326" y="599.0" type="line"/>
      <point x="617.3213804403432" y="599.0" type="line"/>
      <point x="671.6352944820937" y="624.0" type="line"/>
      <point x="685.6640275523152" y="690.0" type="line"/>
      <point x="241.66402755231528" y="690.0" type="line"/>
    </contour>
    <contour>
      <point x="293.89705905130864" y="390.0" type="line"/>
      <point x="398.89705905130864" y="390.0" type="line"/>
      <point x="671.6352944820937" y="624.0" type="line"/>
      <point x="636.6640275523152" y="690.0" type="line"/>
    </contour>
  </outline>
</glyph>
<glyph name="five" format="1">
  <advance width="660"/>
  <unicode hex="0035"/>
  <outline>
    <contour>
      <point x="99.85475118028185" y="84.0" type="line"/>
      <point x="149.25113123340043" y="20.0"/>
      <point x="219.87443438329979" y="-10.0"/>
      <point x="315.8744343832998" y="-10.0" type="curve"/>
      <point x="462.8744343832998" y="-10.0"/>
      <point x="588.0045249336017" y="80.0"/>
      <point x="615.6368779507046" y="210.0" type="curve" smooth="yes"/>
      <point x="643.9069006528176" y="343.0"/>
      <point x="566.5490952714295" y="426.0"/>
      <point x="441.54909527142945" y="426.0" type="curve"/>
      <point x="373.54909527142945" y="426.0"/>
      <point x="309.23518122967886" y="401.0"/>
      <point x="258.09524907786795" y="358.0" type="curve"/>
      <point x="230.2162897609664" y="288.0" type="line"/>
      <point x="285.0808825427572" y="325.0"/>
      <point x="333.69434409114757" y="342.0"/>
      <point x="390.69434409114757" y="342.0" type="curve"/>
      <point x="482.69434409114757" y="342.0"/>
      <point x="532.7911766376263" y="286.0"/>
      <point x="516.6368779507046" y="210.0" type="curve" smooth="yes"/>
      <point x="500.0574661404429" y="132.0"/>
      <point x="427.21708149527177" y="81.0"/>
      <point x="335.21708149527177" y="81.0" type="curve"/>
      <point x="264.21708149527177" y="81.0"/>
      <point x="212.89332585201228" y="103.0"/>
      <point x="179.30859737384336" y="152.0" type="curve"/>
    </contour>
    <contour>
      <point x="191.2306562960771" y="321.0" type="line"/>
      <point x="230.2162897609664" y="288.0" type="line"/>
      <point x="286.39479658450773" y="350.0" type="line"/>
      <point x="376.66402755231525" y="690.0" type="line"/>
      <point x="287.66402755231525" y="690.0" type="line"/>
    </contour>
    <contour>
      <point x="287.66402755231525" y="690.0" type="line"/>
      <point x="317.8962673170032" y="597.0" type="line"/>
      <point x="652.8962673170032" y="597.0" type="line"/>
      <point x="672.6640275523152" y="690.0" type="line"/>
    </contour>
  </outline>
</glyph>
<glyph name="eight" format="1">
  <advance width="660"/>
  <unicode hex="0038"/>
  <outline>
    <contour>
      <point x="120.77228516891383" y="173.0" type="curve"/>
      <point x="140.54004540422588" y="266.0"/>
      <point x="228.05667440613752" y="339.0"/>
      <point x="354.8826925161979" y="357.0" type="curve"/>
      <point x="392.2306562960771" y="321.0" type="line"/>
      <point x="296.19208162434666" y="302.0"/>
      <point x="229.22613136247534" y="241.0"/>
      <point x="216.04762453893397" y="179.0" type="curve"/>
      <point x="202.44400459205255" y="115.0"/>
      <point x="250.72918556358164" y="74.0"/>
      <point x="343.7291855635816" y="74.0" type="curve"/>
      <point x="444.7291855635816" y="74.0"/>
      <point x="502.29423083873263" y="119.0"/>
      <point x="512.9220589222338" y="169.0" type="curve"/>
      <point x="523.9750001290749" y="221.0"/>
      <point x="503.602828212576" y="271.0"/>
      <point x="389.31764724104687" y="312.0" type="curve" smooth="yes"/>
      <point x="238.7957015712281" y="366.0"/>
      <point x="198.97420839476948" y="428.0"/>
      <point x="217.25407269839138" y="514.0" type="curve"/>
      <point x="239.14739855040366" y="617.0"/>
      <point x="344.78959316901546" y="700.0"/>
      <point x="477.78959316901546" y="700.0" type="curve"/>
      <point x="608.7895931690155" y="700.0"/>
      <point x="681.6352944820937" y="624.0"/>
      <point x="659.9545251917516" y="522.0" type="curve"/>
      <point x="641.4621043264597" y="435.0"/>
      <point x="562.2835975029183" y="373.0"/>
      <point x="435.8826925161979" y="357.0" type="curve"/>
      <point x="398.5347287363187" y="393.0" type="line"/>
      <point x="493.935633723039" y="409.0"/>
      <point x="552.1383486832001" y="457.0"/>
      <point x="564.4666292600614" y="515.0" type="curve"/>
      <point x="576.5823532752527" y="572.0"/>
      <point x="541.5725116737437" y="619.0"/>
      <point x="460.5725116737437" y="619.0" type="curve"/>
      <point x="370.5725116737437" y="619.0"/>
      <point x="323.00746639859267" y="574.0"/>
      <point x="312.3796383150916" y="524.0" type="curve"/>
      <point x="302.81459303994063" y="479.0"/>
      <point x="330.3123305731397" y="439.0"/>
      <point x="436.4477377913489" y="402.0" type="curve" smooth="yes"/>
      <point x="594.7571268994977" y="347.0"/>
      <point x="632.9651585275659" y="268.0"/>
      <point x="614.472737662274" y="181.0" type="curve"/>
      <point x="591.9417421252516" y="75.0"/>
      <point x="486.8744343832998" y="-10.0"/>
      <point x="325.8744343832998" y="-10.0" type="curve"/>
      <point x="174.87443438329979" y="-10.0"/>
      <point x="97.3910633852114" y="63.0"/>
    </contour>
  </outline>
</glyph>
<glyph name="colon" format="1">
  <advance width="222"/>
  <unicode hex="003A"/>
  <outline>
    <contour>
      <point x="61.052941206841155" y="52.0" type="curve" smooth="yes"/>
      <point x="53.613461548390376" y="17.0"/>
      <point x="73.87443438329979" y="-10.0"/>
      <point x="108.87443438329979" y="-10.0" type="curve" smooth="yes"/>
      <point x="145.87443438329979" y="-10.0"/>
      <point x="175.61346154839038" y="17.0"/>
      <point x="183.05294120684115" y="52.0" type="curve" smooth="yes"/>
      <point x="190.70497742696193" y="88.0"/>
      <point x="172.44400459205255" y="115.0"/>
      <point x="135.44400459205255" y="115.0" type="curve" smooth="yes"/>
      <point x="100.44400459205255" y="115.0"/>
      <point x="68.70497742696195" y="88.0"/>
    </contour>
    <contour>
      <point x="148.20113149155023" y="462.0" type="curve" smooth="yes"/>
      <point x="140.76165183309945" y="427.0"/>
      <point x="161.02262466800886" y="400.0"/>
      <point x="196.02262466800886" y="400.0" type="curve" smooth="yes"/>
      <point x="233.02262466800886" y="400.0"/>
      <point x="262.76165183309945" y="427.0"/>
      <point x="270.2011314915502" y="462.0" type="curve" smooth="yes"/>
      <point x="277.853167711671" y="498.0"/>
      <point x="259.5921948767616" y="525.0"/>
      <point x="222.5921948767616" y="525.0" type="curve" smooth="yes"/>
      <point x="187.5921948767616" y="525.0"/>
      <point x="155.853167711671" y="498.0"/>
    </contour>
  </outline>
</glyph>
<glyph name="less" format="1">
  <advance width="660"/>
  <unicode hex="003C"/>
  <outline>
    <contour>
      <point x="155.9893666641856" y="254.0" type="line"/>
      <point x="538.6906108918512" y="55.0" type="line"/>
      <point x="558.4583711271632" y="148.0" type="line"/>
      <point x="248.82975130935677" y="305.0" type="line"/>
      <point x="167.2548644326968" y="307.0" type="line"/>
    </contour>
    <contour>
      <point x="161.72839382927623" y="281.0" type="line"/>
      <point x="243.5158372676062" y="280.0" type="line"/>
      <point x="619.4621043264597" y="435.0" type="line"/>
      <point x="638.5921948767616" y="525.0" type="line"/>
      <point x="171.2934391044272" y="326.0" type="line"/>
    </contour>
  </outline>
</glyph>
<glyph name="greater" format="1">
  <advance width="660"/>
  <unicode hex="003E"/>
  <outline>
    <contour>
      <point x="144.6906108918512" y="55.0" type="line"/>
      <point x="611.9893666641856" y="254.0" type="line"/>
      <point x="621.5544119393367" y="299.0" type="line"/>
      <point x="539.7669685010067" y="300.0" type="line"/>
      <point x="163.82070144215322" y="145.0" type="line"/>
    </contour>
    <contour>
      <point x="224.82443464144956" y="432.0" type="line"/>
      <point x="534.4530544592561" y="275.0" type="line"/>
      <point x="616.027941335916" y="273.0" type="line"/>
      <point x="627.2934391044272" y="326.0" type="line"/>
      <point x="244.5921948767616" y="525.0" type="line"/>
    </contour>
  </outline>
</glyph>
<glyph name="A" format="1">
  <advance width="604"/>
  <unicode hex="0041"/>
  <outline>
    <contour>
      <point x="13" y="0" type="line"/>
      <point x="117" y="0" type="line"/>
      <point x="452" y="605" type="line"/>
      <point x="464" y="690" type="line"/>
      <point x="412" y="690" type="line"/>
    </contour>
    <contour>
      <point x="194" y="194" type="line"/>
      <point x="499" y="194" type="line"/>
      <point x="516" y="274" type="line"/>
      <point x="211" y="274" type="line"/>
    </contour>
    <contour>
      <point x="417" y="605" type="line"/>
      <point x="495" y="0" type="line"/>
      <point x="591" y="0" type="line"/>
      <point x="487" y="690" type="line"/>
      <point x="435" y="690" type="line"/>
    </contour>
    <contour>
      <point x="451.0" y="690.0" type="move" name="top"/>
    </contour>
    <contour>
      <point x="305.0" y="0.0" type="move" name="bottom"/>
    </contour>
  </outline>
</glyph>
<glyph name="B" format="1">
  <advance width="629"/>
  <unicode hex="0042"/>
  <outline>
    <contour>
      <point x="101" y="0" type="line"/>
      <point x="198" y="0" type="line"/>
      <point x="345" y="690" type="line"/>
      <point x="248" y="690" type="line"/>
    </contour>
    <contour>
      <point x="147" y="0" type="line"/>
      <point x="333" y="0" type="line" smooth="yes"/>
      <point x="495" y="0"/>
      <point x="608" y="93"/>
      <point x="608" y="218" type="curve"/>
      <point x="608" y="315"/>
      <point x="529" y="376"/>
      <point x="413" y="376" type="curve" smooth="yes"/>
      <point x="227" y="376" type="line"/>
      <point x="214" y="315" type="line"/>
      <point x="392" y="315" type="line" smooth="yes"/>
      <point x="465" y="315"/>
      <point x="510" y="279"/>
      <point x="510" y="216" type="curve"/>
      <point x="510" y="142"/>
      <point x="447" y="82"/>
      <point x="342" y="82" type="curve" smooth="yes"/>
      <point x="164" y="82" type="line"/>
    </contour>
    <contour>
      <point x="218" y="336" type="line"/>
      <point x="383" y="336" type="line" smooth="yes"/>
      <point x="535" y="336"/>
      <point x="649" y="424"/>
      <point x="649" y="536" type="curve"/>
      <point x="649" y="630"/>
      <point x="567" y="690"/>
      <point x="458" y="690" type="curve" smooth="yes"/>
      <point x="294" y="690" type="line"/>
      <point x="276" y="608" type="line"/>
      <point x="434" y="608" type="line" smooth="yes"/>
      <point x="505" y="608"/>
      <point x="549" y="578"/>
      <point x="549" y="520" type="curve"/>
      <point x="549" y="455"/>
      <point x="486" y="391"/>
      <point x="388" y="391" type="curve" smooth="yes"/>
      <point x="230" y="391" type="line"/>
    </contour>
  </outline>
</glyph>
<glyph name="C" format="1">
  <advance width="629"/>
  <unicode hex="0043"/>
  <outline>
    <contour>
      <point x="123" y="237" type="curve"/>
      <point x="123" y="79"/>
      <point x="219" y="-9"/>
      <point x="364" y="-9" type="curve"/>
      <point x="445" y="-9"/>
      <point x="529" y="22"/>
      <point x="599" y="83" type="curve"/>
      <point x="546" y="158" type="line"/>
      <point x="497" y="111"/>
      <point x="434" y="81"/>
      <point x="376" y="81" type="curve"/>
      <point x="281" y="81"/>
      <point x="224" y="138"/>
      <point x="224" y="249" type="curve"/>
      <point x="224" y="445"/>
      <point x="352" y="610"/>
      <point x="495" y="610" type="curve" smooth="yes"/>
      <point x="554" y="610"/>
      <point x="597" y="588"/>
      <point x="629" y="545" type="curve"/>
      <point x="704" y="609" type="line"/>
      <point x="650" y="671"/>
      <point x="590" y="699"/>
      <point x="510" y="699" type="curve" smooth="yes"/>
      <point x="303" y="699"/>
      <point x="123" y="487"/>
    </contour>
    <contour>
      <point x="507.0" y="690.0" type="move" name="top"/>
    </contour>
    <contour>
      <point x="360.0" y="0.0" type="move" name="bottom"/>
    </contour>
  </outline>
</glyph>
<glyph name="E" format="1">
  <advance width="610"/>
  <unicode hex="0045"/>
  <outline>
    <contour>
      <point x="101" y="0" type="line"/>
      <point x="198" y="0" type="line"/>
      <point x="345" y="690" type="line"/>
      <point x="248" y="690" type="line"/>
    </contour>
    <contour>
      <point x="147" y="0" type="line"/>
      <point x="543" y="0" type="line"/>
      <point x="561" y="85" type="line"/>
      <point x="165" y="85" type="line"/>
    </contour>
    <contour>
      <point x="212" y="308" type="line"/>
      <point x="557" y="308" type="line"/>
      <point x="575" y="388" type="line"/>
      <point x="229" y="388" type="line"/>
    </contour>
    <contour>
      <point x="275" y="605" type="line"/>
      <point x="667" y="605" type="line"/>
      <point x="685" y="690" type="line"/>
      <point x="293" y="690" type="line"/>
    </contour>
    <contour>
      <point x="462.0" y="690.0" type="move" name="top"/>
    </contour>
    <contour>
      <point x="315.0" y="0.0" type="move" name="bottom"/>
    </contour>
  </outline>
</glyph>
<glyph name="G" format="1">
  <advance width="683"/>
  <unicode hex="0047"/>
  <outline>
    <contour>
      <point x="123" y="237" type="curve" smooth="yes"/>
      <point x="123" y="81"/>
      <point x="224" y="-9"/>
      <point x="369" y="-9" type="curve"/>
      <point x="455" y="-9"/>
      <point x="552" y="23"/>
      <point x="625" y="85" type="curve"/>
      <point x="566" y="143" type="line"/>
      <point x="515" y="101"/>
      <point x="445" y="76"/>
      <point x="384" y="76" type="curve"/>
      <point x="286" y="76"/>
      <point x="224" y="138"/>
      <point x="224" y="249" type="curve" smooth="yes"/>
      <point x="224" y="445"/>
      <point x="351" y="610"/>
      <point x="497" y="610" type="curve" smooth="yes"/>
      <point x="558" y="610"/>
      <point x="603" y="588"/>
      <point x="636" y="545" type="curve"/>
      <point x="711" y="609" type="line"/>
      <point x="656" y="671"/>
      <point x="593" y="699"/>
      <point x="512" y="699" type="curve" smooth="yes"/>
      <point x="302" y="699"/>
      <point x="123" y="487"/>
    </contour>
    <contour>
      <point x="426" y="266" type="line"/>
      <point x="620" y="266" type="line"/>
      <point x="637" y="348" type="line"/>
      <point x="443" y="348" type="line"/>
    </contour>
    <contour>
      <point x="529" y="81" type="line"/>
      <point x="625" y="85" type="line"/>
      <point x="681" y="348" type="line"/>
      <point x="586" y="348" type="line"/>
    </contour>
    <contour>
      <point x="513.0" y="690.0" type="move" name="top"/>
    </contour>
  </outline>
</glyph>
<glyph name="L" format="1">
  <advance width="559"/>
  <unicode hex="004C"/>
  <outline>
    <contour>
      <point x="101" y="0" type="line"/>
      <point x="198" y="0" type="line"/>
      <point x="345" y="690" type="line"/>
      <point x="248" y="690" type="line"/>
    </contour>
    <contour>
      <point x="147" y="0" type="line"/>
      <point x="514" y="0" type="line"/>
      <point x="532" y="85" type="line"/>
      <point x="165" y="85" type="line"/>
    </contour>
    <contour>
      <point x="296.0" y="690.0" type="move" name="top"/>
    </contour>
  </outline>
</glyph>
<glyph name="M" format="1">
  <advance width="835"/>
  <unicode hex="004D"/>
  <outline>
    <contour>
      <point x="101" y="0" type="line"/>
      <point x="195" y="0" type="line"/>
      <point x="342" y="690" type="line"/>
      <point x="248" y="690" type="line"/>
    </contour>
    <contour>
      <point x="296" y="690" type="line"/>
      <point x="419" y="163" type="line"/>
      <point x="454" y="163" type="line"/>
      <point x="479" y="282" type="line"/>
      <point x="385" y="690" type="line"/>
    </contour>
    <contour>
      <point x="444" y="163" type="line"/>
      <point x="486" y="163" type="line"/>
      <point x="832" y="690" type="line"/>
      <point x="732" y="690" type="line"/>
      <point x="469" y="282" type="line"/>
    </contour>
    <contour>
      <point x="639" y="0" type="line"/>
      <point x="734" y="0" type="line"/>
      <point x="880" y="690" type="line"/>
      <point x="786" y="690" type="line"/>
    </contour>
  </outline>
</glyph>
<glyph name="N" format="1">
  <advance width="735"/>
  <unicode hex="004E"/>
  <outline>
    <contour>
      <point x="101" y="0" type="line"/>
      <point x="192" y="0" type="line"/>
      <point x="339" y="690" type="line"/>
      <point x="248" y="690" type="line"/>
    </contour>
    <contour>
      <point x="279" y="690" type="line"/>
      <point x="513" y="0" type="line"/>
      <point x="603" y="0" type="line"/>
      <point x="370" y="690" type="line"/>
    </contour>
    <contour>
      <point x="540" y="0" type="line"/>
      <point x="631" y="0" type="line"/>
      <point x="778" y="690" type="line"/>
      <point x="687" y="690" type="line"/>
    </contour>
    <contour>
      <point x="531.0" y="690.0" type="move" name="top"/>
    </contour>
  </outline>
</glyph>
<glyph name="P" format="1">
  <advance width="624"/>
  <unicode hex="0050"/>
  <outline>
    <contour>
      <point x="101" y="0" type="line"/>
      <point x="198" y="0" type="line"/>
      <point x="345" y="690" type="line"/>
      <point x="248" y="690" type="line"/>
    </contour>
    <contour>
      <point x="195" y="229" type="line"/>
      <point x="359" y="229" type="line" smooth="yes"/>
      <point x="545" y="229"/>
      <point x="674" y="343"/>
      <point x="674" y="497" type="curve" smooth="yes"/>
      <point x="674" y="612"/>
      <point x="581" y="690"/>
      <point x="454" y="690" type="curve" smooth="yes"/>
      <point x="294" y="690" type="line"/>
      <point x="275" y="605" type="line"/>
      <point x="432" y="605" type="line" smooth="yes"/>
      <point x="522" y="605"/>
      <point x="573" y="563"/>
      <point x="573" y="488" type="curve"/>
      <point x="573" y="386"/>
      <point x="494" y="313"/>
      <point x="366" y="313" type="curve" smooth="yes"/>
      <point x="214" y="313" type="line"/>
    </contour>
  </outline>
</glyph>
<glyph name="Q" format="1">
  <advance width="718"/>
  <unicode hex="0051"/>
  <outline>
    <contour>
      <point x="404" y="8" type="line"/>
      <point x="431" y="-103"/>
      <point x="510" y="-155"/>
      <point x="638" y="-158" type="curve"/>
      <point x="659" y="-64" type="line"/>
      <point x="569" y="-64"/>
      <point x="508" y="-39"/>
      <point x="485" y="35" type="curve"/>
    </contour>
    <component base="O"/>
  </outline>
</glyph>
<glyph name="S" format="1">
  <advance width="603"/>
  <unicode hex="0053"/>
  <outline>
    <contour>
      <point x="70" y="92" type="line"/>
      <point x="140" y="32"/>
      <point x="225" y="-9"/>
      <point x="332" y="-9" type="curve"/>
      <point x="497" y="-9"/>
      <point x="586" y="79"/>
      <point x="586" y="184" type="curve"/>
      <point x="586" y="261"/>
      <point x="544" y="326"/>
      <point x="399" y="401" type="curve" smooth="yes"/>
      <point x="302" y="451"/>
      <point x="279" y="483"/>
      <point x="279" y="524" type="curve"/>
      <point x="279" y="569"/>
      <point x="325" y="615"/>
      <point x="415" y="615" type="curve"/>
      <point x="484" y="615"/>
      <point x="544" y="586"/>
      <point x="591" y="547" type="curve"/>
      <point x="642" y="624" type="line"/>
      <point x="586" y="669"/>
      <point x="513" y="699"/>
      <point x="428" y="699" type="curve"/>
      <point x="271" y="699"/>
      <point x="181" y="611"/>
      <point x="181" y="518" type="curve"/>
      <point x="181" y="445"/>
      <point x="222" y="387"/>
      <point x="348" y="319" type="curve" smooth="yes"/>
      <point x="463" y="259"/>
      <point x="482" y="223"/>
      <point x="482" y="175" type="curve"/>
      <point x="482" y="124"/>
      <point x="435" y="75"/>
      <point x="338" y="75" type="curve"/>
      <point x="256" y="75"/>
      <point x="180" y="115"/>
      <point x="128" y="167" type="curve"/>
    </contour>
    <contour>
      <point x="460.0" y="690.0" type="move" name="top"/>
    </contour>
    <contour>
      <point x="297.0" y="0.0" type="move" name="bottom"/>
    </contour>
  </outline>
</glyph>
<glyph name="T" format="1">
  <advance width="572"/>
  <unicode hex="0054"/>
  <outline>
    <contour>
      <point x="160" y="605" type="line"/>
      <point x="669" y="605" type="line"/>
      <point x="687" y="690" type="line"/>
      <point x="178" y="690" type="line"/>
    </contour>
    <contour>
      <point x="238" y="0" type="line"/>
      <point x="334" y="0" type="line"/>
      <point x="481" y="690" type="line"/>
      <point x="384" y="690" type="line"/>
    </contour>
    <contour>
      <point x="433.0" y="690.0" type="move" name="top"/>
    </contour>
  </outline>
</glyph>
<glyph name="Z" format="1">
  <advance width="611"/>
  <unicode hex="005A"/>
  <outline>
    <contour>
      <point x="61" y="0" type="line"/>
      <point x="549" y="0" type="line"/>
      <point x="567" y="85" type="line"/>
      <point x="110" y="85" type="line"/>
      <point x="75" y="64" type="line"/>
    </contour>
    <contour>
      <point x="75" y="64" type="line"/>
      <point x="142" y="0" type="line"/>
      <point x="674" y="626" type="line"/>
      <point x="607" y="690" type="line"/>
    </contour>
    <contour>
      <point x="199" y="605" type="line"/>
      <point x="638" y="605" type="line"/>
      <point x="674" y="626" type="line"/>
      <point x="687" y="690" type="line"/>
      <point x="217" y="690" type="line"/>
    </contour>
    <contour>
      <point x="454.0" y="690.0" type="move" name="top"/>
    </contour>
  </outline>
</glyph>
<glyph name="bracketleft" format="1">
  <advance width="309"/>
  <unicode hex="005B"/>
  <outline>
    <contour>
      <point x="47.92364239084458" y="-245.0" type="line"/>
      <point x="129.92364239084458" y="-245.0" type="line"/>
      <point x="347.7941181026173" y="780.0" type="line"/>
      <point x="265.7941181026173" y="780.0" type="line"/>
    </contour>
    <contour>
      <point x="47.92364239084458" y="-245.0" type="line"/>
      <point x="291.9236423908446" y="-245.0" type="line"/>
      <point x="306.80260170774613" y="-175.0" type="line"/>
      <point x="62.80260170774613" y="-175.0" type="line"/>
    </contour>
    <contour>
      <point x="250.9151587857157" y="710.0" type="line"/>
      <point x="494.9151587857157" y="710.0" type="line"/>
      <point x="509.7941181026173" y="780.0" type="line"/>
      <point x="265.7941181026173" y="780.0" type="line"/>
    </contour>
  </outline>
</glyph>
<glyph name="bracketright" format="1">
  <advance width="309"/>
  <unicode hex="005D"/>
  <outline>
    <contour>
      <point x="-87.07635760915542" y="-245.0" type="line"/>
      <point x="156.92364239084458" y="-245.0" type="line"/>
      <point x="171.80260170774613" y="-175.0" type="line"/>
      <point x="-72.19739829225387" y="-175.0" type="line"/>
    </contour>
    <contour>
      <point x="115.9151587857157" y="710.0" type="line"/>
      <point x="359.9151587857157" y="710.0" type="line"/>
      <point x="374.7941181026173" y="780.0" type="line"/>
      <point x="130.79411810261726" y="780.0" type="line"/>
    </contour>
    <contour>
      <point x="74.92364239084458" y="-245.0" type="line"/>
      <point x="156.92364239084458" y="-245.0" type="line"/>
      <point x="374.7941181026173" y="780.0" type="line"/>
      <point x="292.7941181026173" y="780.0" type="line"/>
    </contour>
  </outline>
</glyph>
<glyph name="c" format="1">
  <advance width="496"/>
  <unicode hex="0063"/>
  <outline>
    <contour>
      <point x="99" y="174" type="curve" smooth="yes"/>
      <point x="99" y="61"/>
      <point x="168" y="-9"/>
      <point x="273" y="-9" type="curve"/>
      <point x="350" y="-9"/>
      <point x="415" y="24"/>
      <point x="472" y="79" type="curve"/>
      <point x="426" y="140" type="line"/>
      <point x="387" y="99"/>
      <point x="338" y="73"/>
      <point x="287" y="73" type="curve"/>
      <point x="228" y="73"/>
      <point x="192" y="111"/>
      <point x="192" y="187" type="curve" smooth="yes"/>
      <point x="192" y="312"/>
      <point x="271" y="443"/>
      <point x="376" y="443" type="curve" smooth="yes"/>
      <point x="416" y="443"/>
      <point x="446" y="426"/>
      <point x="467" y="392" type="curve"/>
      <point x="531" y="448" type="line"/>
      <point x="503" y="495"/>
      <point x="447" y="525"/>
      <point x="387" y="525" type="curve" smooth="yes"/>
      <point x="222" y="525"/>
      <point x="99" y="358"/>
    </contour>
    <contour>
      <point x="390.0" y="515.0" type="move" name="top"/>
    </contour>
    <contour>
      <point x="276.0" y="0.0" type="move" name="bottom"/>
    </contour>
  </outline>
</glyph>
<glyph name="d" format="1">
  <advance width="580"/>
  <unicode hex="0064"/>
  <outline>
    <contour>
      <point x="100" y="177" type="curve"/>
      <point x="100" y="58"/>
      <point x="169" y="-9"/>
      <point x="255" y="-9" type="curve"/>
      <point x="328" y="-9"/>
      <point x="396" y="29"/>
      <point x="437" y="100" type="curve"/>
      <point x="425" y="112" type="line"/>
      <point x="422" y="0" type="line"/>
      <point x="509" y="0" type="line"/>
      <point x="509" y="34" type="line" smooth="yes"/>
      <point x="509" y="65"/>
      <point x="512" y="92"/>
      <point x="519" y="123" type="curve" smooth="yes"/>
      <point x="648" y="732" type="line"/>
      <point x="553" y="716" type="line"/>
      <point x="455" y="254" type="line" smooth="yes"/>
      <point x="430" y="138"/>
      <point x="347" y="72"/>
      <point x="280" y="72" type="curve"/>
      <point x="229" y="72"/>
      <point x="194" y="109"/>
      <point x="194" y="187" type="curve"/>
      <point x="194" y="325"/>
      <point x="279" y="449"/>
      <point x="375" y="449" type="curve"/>
      <point x="422" y="449"/>
      <point x="462" y="430"/>
      <point x="499" y="386" type="curve"/>
      <point x="516" y="468" type="line"/>
      <point x="476" y="507"/>
      <point x="426" y="525"/>
      <point x="377" y="525" type="curve"/>
      <point x="230" y="525"/>
      <point x="100" y="369"/>
    </contour>
  </outline>
</glyph>
<glyph name="i" format="1">
  <advance width="268"/>
  <unicode hex="0069"/>
  <outline>
    <contour>
      <point x="88" y="0" type="line"/>
      <point x="180" y="0" type="line"/>
      <point x="289" y="515" type="line"/>
      <point x="197" y="515" type="line"/>
    </contour>
    <contour>
      <point x="218" y="670" type="curve"/>
      <point x="218" y="642"/>
      <point x="237" y="620"/>
      <point x="269" y="620" type="curve"/>
      <point x="308" y="620"/>
      <point x="340" y="653"/>
      <point x="340" y="691" type="curve"/>
      <point x="340" y="720"/>
      <point x="321" y="742"/>
      <point x="289" y="742" type="curve"/>
      <point x="250" y="742"/>
      <point x="218" y="708"/>
    </contour>
    <contour>
      <point x="134.0" y="0.0" type="move" name="bottom"/>
    </contour>
  </outline>
</glyph>
<glyph name="n" format="1">
  <advance width="596"/>
  <unicode hex="006E"/>
  <outline>
    <contour>
      <point x="88" y="0" type="line"/>
      <point x="180" y="0" type="line"/>
      <point x="235" y="261" type="line" smooth="yes"/>
      <point x="260" y="378"/>
      <point x="344" y="444"/>
      <point x="410" y="444" type="curve"/>
      <point x="461" y="444"/>
      <point x="493" y="416"/>
      <point x="493" y="358" type="curve" smooth="yes"/>
      <point x="493" y="344"/>
      <point x="491" y="330"/>
      <point x="487" y="313" type="curve" smooth="yes"/>
      <point x="421" y="0" type="line"/>
      <point x="513" y="0" type="line"/>
      <point x="580" y="314" type="line" smooth="yes"/>
      <point x="584" y="334"/>
      <point x="586" y="354"/>
      <point x="586" y="371" type="curve" smooth="yes"/>
      <point x="586" y="468"/>
      <point x="519" y="525"/>
      <point x="439" y="525" type="curve"/>
      <point x="363" y="525"/>
      <point x="294" y="486"/>
      <point x="253" y="416" type="curve"/>
      <point x="265" y="403" type="line"/>
      <point x="268" y="515" type="line"/>
      <point x="181" y="515" type="line"/>
      <point x="181" y="482" type="line" smooth="yes"/>
      <point x="181" y="450"/>
      <point x="178" y="423"/>
      <point x="171" y="392" type="curve" smooth="yes"/>
    </contour>
    <contour>
      <point x="418.0" y="515.0" type="move" name="top"/>
    </contour>
  </outline>
</glyph>
<glyph name="o" format="1">
  <advance width="554"/>
  <unicode hex="006F"/>
  <outline>
    <contour>
      <point x="99" y="174" type="curve"/>
      <point x="99" y="60"/>
      <point x="170" y="-9"/>
      <point x="274" y="-9" type="curve"/>
      <point x="443" y="-9"/>
      <point x="565" y="160"/>
      <point x="565" y="341" type="curve"/>
      <point x="565" y="455"/>
      <point x="494" y="525"/>
      <point x="390" y="525" type="curve"/>
      <point x="220" y="525"/>
      <point x="99" y="358"/>
    </contour>
    <contour>
      <point x="192" y="186" type="curve"/>
      <point x="192" y="312"/>
      <point x="271" y="446"/>
      <point x="378" y="446" type="curve"/>
      <point x="437" y="446"/>
      <point x="472" y="407"/>
      <point x="472" y="328" type="curve"/>
      <point x="472" y="202"/>
      <point x="393" y="69"/>
      <point x="285" y="69" type="curve"/>
      <point x="226" y="69"/>
      <point x="192" y="108"/>
    </contour>
    <contour>
      <point x="386.0" y="515.0" type="move" name="top"/>
    </contour>
    <contour>
      <point x="276.0" y="0.0" type="move" name="bottom"/>
    </contour>
  </outline>
</glyph>
<glyph name="r" format="1">
  <advance width="359"/>
  <unicode hex="0072"/>
  <outline>
    <contour>
      <point x="88" y="0" type="line"/>
      <point x="180" y="0" type="line"/>
      <point x="229" y="235" type="line" smooth="yes"/>
      <point x="262" y="386"/>
      <point x="341" y="430"/>
      <point x="422" y="433" type="curve"/>
      <point x="441" y="525" type="line"/>
      <point x="365" y="522"/>
      <point x="301" y="491"/>
      <point x="249" y="398" type="curve"/>
      <point x="265" y="387" type="line"/>
      <point x="268" y="515" type="line"/>
      <point x="181" y="515" type="line"/>
      <point x="181" y="482" type="line" smooth="yes"/>
      <point x="181" y="450"/>
      <point x="178" y="423"/>
      <point x="171" y="392" type="curve" smooth="yes"/>
    </contour>
    <contour>
      <point x="319.0" y="515.0" type="move" name="top"/>
    </contour>
  </outline>
</glyph>
<glyph name="t" format="1">
  <advance width="398"/>
  <unicode hex="0074"/>
  <outline>
    <contour>
      <point x="119" y="442" type="line"/>
      <point x="442" y="442" type="line"/>
      <point x="457" y="515" type="line"/>
      <point x="134" y="515" type="line"/>
    </contour>
    <contour>
      <point x="146" y="112" type="curve"/>
      <point x="146" y="36"/>
      <point x="196" y="-9"/>
      <point x="274" y="-9" type="curve"/>
      <point x="306" y="-9"/>
      <point x="343" y="0"/>
      <point x="370" y="13" type="curve"/>
      <point x="359" y="93" type="line"/>
      <point x="335" y="82"/>
      <point x="310" y="75"/>
      <point x="289" y="75" type="curve"/>
      <point x="258" y="75"/>
      <point x="239" y="91"/>
      <point x="239" y="126" type="curve"/>
      <point x="239" y="138"/>
      <point x="240" y="150"/>
      <point x="243" y="163" type="curve" smooth="yes"/>
      <point x="348" y="656" type="line"/>
      <point x="253" y="640" type="line"/>
      <point x="152" y="163" type="line" smooth="yes"/>
      <point x="148" y="147"/>
      <point x="146" y="129"/>
    </contour>
  </outline>
</glyph>
<glyph name="w" format="1">
  <advance width="738"/>
  <unicode hex="0077"/>
  <outline>
    <contour>
      <point x="126" y="515" type="line"/>
      <point x="179" y="0" type="line"/>
      <point x="239" y="0" type="line"/>
      <point x="250" y="58" type="line"/>
      <point x="220" y="515" type="line"/>
    </contour>
    <contour>
      <point x="198" y="0" type="line"/>
      <point x="253" y="0" type="line"/>
      <point x="470" y="403" type="line"/>
      <point x="492" y="515" type="line"/>
      <point x="442" y="515" type="line"/>
      <point x="206" y="58" type="line"/>
    </contour>
    <contour>
      <point x="441" y="403" type="line"/>
      <point x="485" y="0" type="line"/>
      <point x="546" y="0" type="line"/>
      <point x="557" y="58" type="line"/>
      <point x="515" y="515" type="line"/>
      <point x="463" y="515" type="line"/>
    </contour>
    <contour>
      <point x="505" y="0" type="line"/>
      <point x="560" y="0" type="line"/>
      <point x="833" y="515" type="line"/>
      <point x="734" y="515" type="line"/>
      <point x="513" y="58" type="line"/>
    </contour>
    <contour>
      <point x="477.0" y="515.0" type="move" name="top"/>
    </contour>
  </outline>
</glyph>
<glyph name="x" format="1">
  <advance width="509"/>
  <unicode hex="0078"/>
  <outline>
    <contour>
      <point x="24" y="0" type="line"/>
      <point x="132" y="0" type="line"/>
      <point x="306" y="208" type="line"/>
      <point x="347" y="250" type="line"/>
      <point x="584" y="515" type="line"/>
      <point x="476" y="515" type="line"/>
      <point x="316" y="324" type="line"/>
      <point x="274" y="281" type="line"/>
    </contour>
    <contour>
      <point x="144" y="515" type="line"/>
      <point x="279" y="230" type="line"/>
      <point x="383" y="0" type="line"/>
      <point x="484" y="0" type="line"/>
      <point x="343" y="298" type="line"/>
      <point x="245" y="515" type="line"/>
    </contour>
  </outline>
</glyph>
<glyph name="z" format="1">
  <advance width="479"/>
  <unicode hex="007A"/>
  <outline>
    <contour>
      <point x="48" y="0" type="line"/>
      <point x="431" y="0" type="line"/>
      <point x="447" y="73" type="line"/>
      <point x="94" y="73" type="line"/>
      <point x="60" y="56" type="line"/>
    </contour>
    <contour>
      <point x="60" y="56" type="line"/>
      <point x="127" y="0" type="line"/>
      <point x="521" y="459" type="line"/>
      <point x="453" y="515" type="line"/>
    </contour>
    <contour>
      <point x="151" y="442" type="line"/>
      <point x="485" y="442" type="line"/>
      <point x="521" y="459" type="line"/>
      <point x="532" y="515" type="line"/>
      <point x="166" y="515" type="line"/>
    </contour>
    <contour>
      <point x="351.0" y="515.0" type="move" name="top"/>
    </contour>
  </outline>
</glyph>
<glyph name="yen" format="1">
  <advance width="660"/>
  <unicode hex="00A5"/>
  <outline>
    <contour>
      <point x="183.66402755231528" y="690.0" type="line"/>
      <point x="353.76696850100666" y="300.0" type="line"/>
      <point x="408.76696850100666" y="300.0" type="line"/>
      <point x="426.7957015712281" y="366.0" type="line"/>
      <point x="295.66402755231525" y="690.0" type="line"/>
    </contour>
    <contour>
      <point x="151.6467195522136" y="163.0" type="line"/>
      <point x="577.6467195522137" y="163.0" type="line"/>
      <point x="593.8010182391353" y="239.0" type="line"/>
      <point x="167.8010182391353" y="239.0" type="line"/>
    </contour>
    <contour>
      <point x="182.46742099436682" y="308.0" type="line"/>
      <point x="608.4674209943669" y="308.0" type="line"/>
      <point x="624.6217196812885" y="384.0" type="line"/>
      <point x="198.62171968128848" y="384.0" type="line"/>
    </contour>
    <contour>
      <point x="282.0" y="0.0" type="line"/>
      <point x="378.0" y="0.0" type="line"/>
      <point x="452.39479658450773" y="350.0" type="line"/>
      <point x="356.39479658450773" y="350.0" type="line"/>
    </contour>
    <contour>
      <point x="392.7957015712281" y="366.0" type="line"/>
      <point x="386.76696850100666" y="300.0" type="line"/>
      <point x="433.76696850100666" y="300.0" type="line"/>
      <point x="769.6640275523152" y="690.0" type="line"/>
      <point x="661.6640275523152" y="690.0" type="line"/>
    </contour>
  </outline>
</glyph>
<glyph name="brokenbar" format="1">
  <advance width="282"/>
  <unicode hex="00A6"/>
  <outline>
    <contour>
      <point x="54.30033924094524" y="-215.0" type="line"/>
      <point x="136.30033924094525" y="-215.0" type="line"/>
      <point x="213.88348425050333" y="150.0" type="line"/>
      <point x="131.88348425050333" y="150.0" type="line"/>
    </contour>
    <contour>
      <point x="175.45757939285784" y="355.0" type="line"/>
      <point x="257.45757939285784" y="355.0" type="line"/>
      <point x="335.0407244024159" y="720.0" type="line"/>
      <point x="253.04072440241592" y="720.0" type="line"/>
    </contour>
  </outline>
</glyph>
<glyph name="guillemetleft" format="1">
  <advance width="499"/>
  <unicode hex="00AB"/>
  <outline>
    <contour>
      <point x="97.50147073249546" y="247.0" type="line"/>
      <point x="182.64219461861182" y="83.0" type="line"/>
      <point x="281.6421946186118" y="83.0" type="line"/>
      <point x="167.2790725693165" y="293.0" type="line"/>
      <point x="107.06651600764647" y="292.0" type="line"/>
    </contour>
    <contour>
      <point x="97.9265838558355" y="249.0" type="line"/>
      <point x="157.71402729416548" y="248.0" type="line"/>
      <point x="361.35090524487015" y="458.0" type="line"/>
      <point x="262.35090524487015" y="458.0" type="line"/>
      <point x="107.4916291309865" y="294.0" type="line"/>
    </contour>
    <contour>
      <point x="297.5014707324955" y="247.0" type="line"/>
      <point x="382.6421946186118" y="83.0" type="line"/>
      <point x="481.6421946186118" y="83.0" type="line"/>
      <point x="367.2790725693165" y="293.0" type="line"/>
      <point x="307.06651600764644" y="292.0" type="line"/>
    </contour>
    <contour>
      <point x="297.92658385583553" y="249.0" type="line"/>
      <point x="357.7140272941655" y="248.0" type="line"/>
      <point x="561.3509052448701" y="458.0" type="line"/>
      <point x="462.35090524487015" y="458.0" type="line"/>
      <point x="307.4916291309865" y="294.0" type="line"/>
    </contour>
  </outline>
</glyph>
<glyph name="plusminus" format="1">
  <advance width="660"/>
  <unicode hex="00B1"/>
  <outline>
    <contour>
      <point x="116.81617650855144" y="65.0" type="line"/>
      <point x="570.8161765085514" y="65.0" type="line"/>
      <point x="586.7579186338031" y="140.0" type="line"/>
      <point x="132.7579186338031" y="140.0" type="line"/>
    </contour>
    <contour>
      <point x="162.5158372676062" y="280.0" type="line"/>
      <point x="616.5158372676062" y="280.0" type="line"/>
      <point x="633.520362201208" y="360.0" type="line"/>
      <point x="179.52036220120794" y="360.0" type="line"/>
    </contour>
    <contour>
      <point x="301.81617650855145" y="65.0" type="line"/>
      <point x="385.81617650855145" y="65.0" type="line"/>
      <point x="487.843326110162" y="545.0" type="line"/>
      <point x="403.843326110162" y="545.0" type="line"/>
    </contour>
  </outline>
</glyph>
<glyph name="twosuperior" format="1">
  <advance width="440"/>
  <unicode hex="00B2"/>
  <outline>
    <contour>
      <point x="199.4855207287739" y="628.0" type="curve"/>
      <point x="240.64513608360278" y="577.0" type="line"/>
      <point x="272.2343894953734" y="608.0"/>
      <point x="307.4855207287739" y="628.0"/>
      <point x="341.4855207287739" y="628.0" type="curve" smooth="yes"/>
      <point x="377.4855207287739" y="628.0"/>
      <point x="398.5967198103634" y="605.0"/>
      <point x="391.5823532752527" y="572.0" type="curve" smooth="yes"/>
      <point x="384.7805433018119" y="540.0"/>
      <point x="355.6164030133813" y="511.0"/>
      <point x="311.1769233549305" y="476.0" type="curve" smooth="yes"/>
      <point x="149.54457033782765" y="346.0" type="line"/>
      <point x="177.64140288430642" y="290.0" type="line"/>
      <point x="354.54909527142945" y="426.0" type="line" smooth="yes"/>
      <point x="421.3894799166005" y="477.0"/>
      <point x="462.4424211234417" y="529.0"/>
      <point x="471.5823532752527" y="572.0" type="curve" smooth="yes"/>
      <point x="488.1617650855144" y="650.0"/>
      <point x="436.78959316901546" y="700.0"/>
      <point x="358.78959316901546" y="700.0" type="curve" smooth="yes"/>
      <point x="301.78959316901546" y="700.0"/>
      <point x="252.68823568893495" y="676.0"/>
    </contour>
    <contour>
      <point x="137.64140288430642" y="290.0" type="line"/>
      <point x="421.64140288430644" y="290.0" type="line"/>
      <point x="436.09524907786795" y="358.0" type="line"/>
      <point x="212.09524907786792" y="358.0" type="line"/>
      <point x="149.54457033782765" y="346.0" type="line"/>
    </contour>
  </outline>
</glyph>
<glyph name="threesuperior" format="1">
  <advance width="440"/>
  <unicode hex="00B3"/>
  <outline>
    <contour>
      <point x="130.26923096780752" y="340.0" type="line"/>
      <point x="163.3418553776666" y="298.0"/>
      <point x="205.5158372676062" y="280.0"/>
      <point x="263.5158372676062" y="280.0" type="curve" smooth="yes"/>
      <point x="349.5158372676062" y="280.0"/>
      <point x="429.2934391044272" y="326.0"/>
      <point x="446.723077161369" y="408.0" type="curve" smooth="yes"/>
      <point x="463.7276020949708" y="488.0"/>
      <point x="409.5921948767616" y="525.0"/>
      <point x="322.5921948767616" y="525.0" type="curve" smooth="yes"/>
      <point x="287.5921948767616" y="525.0" type="line"/>
      <point x="254.25407269839138" y="514.0" type="line"/>
      <point x="244.47647086157036" y="468.0" type="line"/>
      <point x="293.47647086157036" y="468.0" type="line" smooth="yes"/>
      <point x="347.47647086157036" y="468.0"/>
      <point x="376.8002265048299" y="446.0"/>
      <point x="368.723077161369" y="408.0" type="curve" smooth="yes"/>
      <point x="360.64592781790816" y="370.0"/>
      <point x="322.39479658450773" y="350.0"/>
      <point x="278.39479658450773" y="350.0" type="curve" smooth="yes"/>
      <point x="240.39479658450773" y="350.0"/>
      <point x="213.58314500955808" y="365.0"/>
      <point x="193.7472852979887" y="394.0" type="curve"/>
    </contour>
    <contour>
      <point x="208.21018135875377" y="622.0" type="line"/>
      <point x="430.21018135875374" y="622.0" type="line"/>
      <point x="473.18597322213407" y="636.0" type="line"/>
      <point x="484.66402755231525" y="690.0" type="line"/>
      <point x="222.66402755231528" y="690.0" type="line"/>
    </contour>
    <contour>
      <point x="254.25407269839138" y="514.0" type="line"/>
      <point x="339.2540726983914" y="514.0" type="line"/>
      <point x="473.18597322213407" y="636.0" type="line"/>
      <point x="446.66402755231525" y="690.0" type="line"/>
    </contour>
  </outline>
</glyph>
<glyph name="paragraph" format="1">
  <advance width="711"/>
  <unicode hex="00B6"/>
  <outline>
    <contour>
      <point x="163.95000025814977" y="442.0" type="curve" smooth="yes"/>
      <point x="129.94095039094623" y="282.0"/>
      <point x="227.44852952565432" y="195.0"/>
      <point x="387.4485295256543" y="195.0" type="curve" smooth="yes"/>
      <point x="410.4485295256543" y="195.0" type="line"/>
      <point x="329.6770360910459" y="-185.0" type="line"/>
      <point x="411.6770360910459" y="-185.0" type="line"/>
      <point x="597.6640275523152" y="690.0" type="line"/>
      <point x="492.66402755231525" y="690.0" type="line" smooth="yes"/>
      <point x="332.66402755231525" y="690.0"/>
      <point x="197.97808504132377" y="602.0895522388059"/>
    </contour>
    <contour>
      <point x="489.6770360910459" y="-185.0" type="line"/>
      <point x="571.6770360910459" y="-185.0" type="line"/>
      <point x="757.6640275523152" y="690.0" type="line"/>
      <point x="675.6640275523152" y="690.0" type="line"/>
    </contour>
  </outline>
</glyph>
<glyph name="onesuperior" format="1">
  <advance width="440"/>
  <unicode hex="00B9"/>
  <outline>
    <contour>
      <point x="143.64140288430642" y="290.0" type="line"/>
      <point x="441.64140288430644" y="290.0" type="line"/>
      <point x="455.6701359545279" y="356.0" type="line"/>
      <point x="157.6701359545279" y="356.0" type="line"/>
    </contour>
    <contour>
      <point x="197.78506823541372" y="620.0" type="line"/>
      <point x="213.0316745352124" y="560.0" type="line"/>
      <point x="375.27296416710385" y="627.0" type="line"/>
      <point x="366.66402755231525" y="690.0" type="line"/>
    </contour>
    <contour>
      <point x="255.64140288430642" y="290.0" type="line"/>
      <point x="335.64140288430644" y="290.0" type="line"/>
      <point x="420.66402755231525" y="690.0" type="line"/>
      <point x="366.66402755231525" y="690.0" type="line"/>
      <point x="329.39852978380407" y="637.0" type="line"/>
    </contour>
  </outline>
</glyph>
<glyph name="guillemetright" format="1">
  <advance width="499"/>
  <unicode hex="00BB"/>
  <outline>
    <contour>
      <point x="52.64219461861184" y="83.0" type="line"/>
      <point x="151.64219461861182" y="83.0" type="line"/>
      <point x="306.5014707324955" y="247.0" type="line"/>
      <point x="316.06651600764644" y="292.0" type="line"/>
      <point x="256.2790725693165" y="293.0" type="line"/>
    </contour>
    <contour>
      <point x="132.35090524487015" y="458.0" type="line"/>
      <point x="246.71402729416548" y="248.0" type="line"/>
      <point x="306.92658385583553" y="249.0" type="line"/>
      <point x="316.4916291309865" y="294.0" type="line"/>
      <point x="231.35090524487015" y="458.0" type="line"/>
    </contour>
    <contour>
      <point x="252.64219461861182" y="83.0" type="line"/>
      <point x="351.6421946186118" y="83.0" type="line"/>
      <point x="506.5014707324955" y="247.0" type="line"/>
      <point x="516.0665160076464" y="292.0" type="line"/>
      <point x="456.2790725693165" y="293.0" type="line"/>
    </contour>
    <contour>
      <point x="332.35090524487015" y="458.0" type="line"/>
      <point x="446.7140272941655" y="248.0" type="line"/>
      <point x="506.92658385583553" y="249.0" type="line"/>
      <point x="516.4916291309866" y="294.0" type="line"/>
      <point x="431.35090524487015" y="458.0" type="line"/>
    </contour>
  </outline>
</glyph>
<glyph name="questiondown" format="1">
  <advance width="508"/>
  <unicode hex="00BF"/>
  <outline>
    <contour>
      <point x="58.93721719164989" y="-5.0" type="curve"/>
      <point x="34.28065603792732" y="-121.0"/>
      <point x="109.55147047434568" y="-195.0"/>
      <point x="220.55147047434568" y="-195.0" type="curve"/>
      <point x="314.5514704743457" y="-195.0"/>
      <point x="391.26628950281656" y="-154.0"/>
      <point x="465.3578053813882" y="-83.0" type="curve"/>
      <point x="416.3865384516096" y="-17.0" type="line"/>
      <point x="361.4833709980884" y="-73.0"/>
      <point x="310.8941175863177" y="-104.0"/>
      <point x="242.8941175863177" y="-104.0" type="curve"/>
      <point x="180.8941175863177" y="-104.0"/>
      <point x="145.82149317645863" y="-62.0"/>
      <point x="157.9372171916499" y="-5.0" type="curve"/>
      <point x="168.13993215181094" y="43.0"/>
      <point x="207.5166290019116" y="73.0"/>
      <point x="275.0188914687125" y="113.0" type="curve" smooth="yes"/>
      <point x="324.1830317571431" y="142.0"/>
      <point x="353.6225114155939" y="177.0"/>
      <point x="360.31312230744516" y="232.0" type="curve" smooth="yes"/>
      <point x="369.82975130935677" y="305.0" type="line"/>
      <point x="290.82975130935677" y="305.0" type="line"/>
      <point x="275.0763576091554" y="245.0" type="line" smooth="yes"/>
      <point x="263.72386889567446" y="201.0"/>
      <point x="250.32296390895408" y="185.0"/>
      <point x="206.4341629905436" y="162.0" type="curve" smooth="yes"/>
      <point x="132.1444570854127" y="123.0"/>
      <point x="74.02873307022146" y="66.0"/>
    </contour>
    <contour>
      <point x="424.41368805322026" y="463.0" type="curve" smooth="yes"/>
      <point x="431.853167711671" y="498.0"/>
      <point x="411.5921948767616" y="525.0"/>
      <point x="376.5921948767616" y="525.0" type="curve" smooth="yes"/>
      <point x="339.5921948767616" y="525.0"/>
      <point x="309.853167711671" y="498.0"/>
      <point x="302.41368805322026" y="463.0" type="curve" smooth="yes"/>
      <point x="294.76165183309945" y="427.0"/>
      <point x="313.02262466800886" y="400.0"/>
      <point x="350.02262466800886" y="400.0" type="curve" smooth="yes"/>
      <point x="385.02262466800886" y="400.0"/>
      <point x="416.76165183309945" y="427.0"/>
    </contour>
  </outline>
</glyph>
<glyph name="germandbls" format="1">
  <advance width="602"/>
  <unicode hex="00DF"/>
  <outline>
    <contour>
      <point x="630.4128963189148" y="670.0"/>
      <point x="565.1662900191161" y="730.0"/>
      <point x="445.16629001911616" y="730.0" type="curve" smooth="yes"/>
      <point x="325.16629001911616" y="730.0"/>
      <point x="231.56267007223474" y="666.0"/>
      <point x="203.93031705513187" y="536.0" type="curve" smooth="yes"/>
      <point x="90.0" y="0.0" type="line"/>
      <point x="182.0" y="0.0" type="line"/>
      <point x="295.5052039317918" y="534.0" type="line" smooth="yes"/>
      <point x="312.08461574205353" y="612.0"/>
      <point x="364.3743216471844" y="651.0"/>
      <point x="428.3743216471844" y="651.0" type="curve" smooth="yes"/>
      <point x="492.3743216471844" y="651.0"/>
      <point x="527.3599551120736" y="618.0"/>
      <point x="515.0316745352123" y="560.0" type="curve" smooth="yes"/>
      <point x="503.9787333283712" y="508.0"/>
      <point x="444.62624461489025" y="464.0"/>
      <point x="350.02262466800886" y="400.0" type="curve"/>
      <point x="330.8925341177069" y="310.0" type="line"/>
      <point x="436.58846167746526" y="238.0" type="line" smooth="yes"/>
      <point x="492.5113123340044" y="200.0"/>
      <point x="504.98484173058387" y="174.0"/>
      <point x="497.33280551046306" y="138.0" type="curve" smooth="yes"/>
      <point x="489.46821272867226" y="101.0"/>
      <point x="456.2412896318915" y="67.0"/>
      <point x="406.2412896318915" y="67.0" type="curve" smooth="yes"/>
      <point x="360.2412896318915" y="67.0"/>
      <point x="328.2798643036219" y="86.0"/>
      <point x="302.53099553702236" y="106.0" type="curve"/>
      <point x="252.37669685010067" y="30.0" type="line"/>
      <point x="276.9757918633803" y="14.0"/>
      <point x="325.8744343832998" y="-10.0"/>
      <point x="385.8744343832998" y="-10.0" type="curve" smooth="yes"/>
      <point x="487.8744343832998" y="-10.0"/>
      <point x="573.4780543301812" y="54.0"/>
      <point x="591.7579186338031" y="140.0" type="curve" smooth="yes"/>
      <point x="606.2117648273646" y="208.0"/>
      <point x="587.2647060342058" y="260.0"/>
      <point x="506.955316926057" y="315.0" type="curve" smooth="yes"/>
      <point x="431.7957015712281" y="366.0" type="line"/>
      <point x="503.2737559014093" y="420.0"/>
      <point x="589.6020364782705" y="478.0"/>
      <point x="609.1572401519127" y="570.0" type="curve" smooth="yes"/>
    </contour>
  </outline>
</glyph>
<glyph name="divide" format="1">
  <advance width="660"/>
  <unicode hex="00F7"/>
  <outline>
    <contour>
      <point x="156.13914041750553" y="250.0" type="line"/>
      <point x="610.1391404175056" y="250.0" type="line"/>
      <point x="627.1436653511073" y="330.0" type="line"/>
      <point x="173.1436653511073" y="330.0" type="line"/>
    </contour>
    <contour>
      <point x="294.08167427706263" y="118.0" type="curve" smooth="yes"/>
      <point x="286.4296380569418" y="82.0"/>
      <point x="306.69061089185124" y="55.0"/>
      <point x="341.69061089185124" y="55.0" type="curve" smooth="yes"/>
      <point x="378.69061089185124" y="55.0"/>
      <point x="408.4296380569418" y="82.0"/>
      <point x="416.08167427706263" y="118.0" type="curve" smooth="yes"/>
      <point x="423.5211539355134" y="153.0"/>
      <point x="405.260181100604" y="180.0"/>
      <point x="368.260181100604" y="180.0" type="curve" smooth="yes"/>
      <point x="333.260181100604" y="180.0"/>
      <point x="301.5211539355134" y="153.0"/>
    </contour>
    <contour>
      <point x="367.2011314915502" y="462.0" type="curve" smooth="yes"/>
      <point x="359.76165183309945" y="427.0"/>
      <point x="380.02262466800886" y="400.0"/>
      <point x="415.02262466800886" y="400.0" type="curve" smooth="yes"/>
      <point x="452.02262466800886" y="400.0"/>
      <point x="481.76165183309945" y="427.0"/>
      <point x="489.2011314915502" y="462.0" type="curve" smooth="yes"/>
      <point x="496.853167711671" y="498.0"/>
      <point x="478.5921948767616" y="525.0"/>
      <point x="441.5921948767616" y="525.0" type="curve" smooth="yes"/>
      <point x="406.5921948767616" y="525.0"/>
      <point x="374.853167711671" y="498.0"/>
    </contour>
  </outline>
</glyph>
<glyph name="OE" format="1">
  <advance width="981"/>
  <unicode hex="0152"/>
  <outline>
    <contour>
      <point x="133.33201377615762" y="345.0" type="curve" smooth="yes"/>
      <point x="83.80633490704247" y="112.0"/>
      <point x="217.0" y="0.0"/>
      <point x="408.0" y="0.0" type="curve" smooth="yes"/>
      <point x="509.0" y="0.0" type="line"/>
      <point x="527.2798643036219" y="86.0" type="line"/>
      <point x="426.2798643036219" y="86.0" type="line" smooth="yes"/>
      <point x="283.2798643036219" y="86.0"/>
      <point x="194.7095023605637" y="168.0"/>
      <point x="232.33201377615762" y="345.0" type="curve" smooth="yes"/>
      <point x="269.95452519175154" y="522.0"/>
      <point x="393.38416324869337" y="604.0"/>
      <point x="536.3841632486933" y="604.0" type="curve" smooth="yes"/>
      <point x="637.3841632486933" y="604.0" type="line"/>
      <point x="655.6640275523152" y="690.0" type="line"/>
      <point x="554.6640275523152" y="690.0" type="line" smooth="yes"/>
      <point x="363.66402755231525" y="690.0"/>
      <point x="182.85769264527278" y="578.0"/>
    </contour>
    <contour>
      <point x="480.0" y="0.0" type="line"/>
      <point x="576.0" y="0.0" type="line"/>
      <point x="722.6640275523152" y="690.0" type="line"/>
      <point x="626.6640275523152" y="690.0" type="line"/>
    </contour>
    <contour>
      <point x="530.0" y="0.0" type="line"/>
      <point x="911.0" y="0.0" type="line"/>
      <point x="929.2798643036219" y="86.0" type="line"/>
      <point x="548.2798643036219" y="86.0" type="line"/>
    </contour>
    <contour>
      <point x="595.2548644326968" y="307.0" type="line"/>
      <point x="921.2548644326968" y="307.0" type="line"/>
      <point x="939.5347287363187" y="393.0" type="line"/>
      <point x="613.5347287363187" y="393.0" type="line"/>
    </contour>
    <contour>
      <point x="658.3841632486933" y="604.0" type="line"/>
      <point x="1034.3841632486933" y="604.0" type="line"/>
      <point x="1052.6640275523152" y="690.0" type="line"/>
      <point x="676.6640275523152" y="690.0" type="line"/>
    </contour>
  </outline>
</glyph>
<glyph name="florin" format="1">
  <advance width="660"/>
  <unicode hex="0192"/>
  <outline>
    <contour>
      <point x="80.527262337726" y="-181.0" type="line"/>
      <point x="99.82680984436581" y="-189.0"/>
      <point x="125.55147047434568" y="-195.0"/>
      <point x="152.55147047434568" y="-195.0" type="curve"/>
      <point x="242.55147047434568" y="-195.0"/>
      <point x="323.51742073621705" y="-134.0"/>
      <point x="344.77307690321925" y="-34.0" type="curve" smooth="yes"/>
      <point x="469.75633516519224" y="554.0" type="line" smooth="yes"/>
      <point x="482.2971723037235" y="613.0"/>
      <point x="517.3743216471844" y="651.0"/>
      <point x="573.3743216471844" y="651.0" type="curve" smooth="yes"/>
      <point x="598.3743216471844" y="651.0"/>
      <point x="622.0989822771643" y="645.0"/>
      <point x="647.548303537124" y="633.0" type="curve"/>
      <point x="681.2774891007057" y="707.0" type="line"/>
      <point x="652.2532809640859" y="721.0"/>
      <point x="618.1662900191161" y="730.0"/>
      <point x="577.1662900191161" y="730.0" type="curve" smooth="yes"/>
      <point x="488.16629001911616" y="730.0"/>
      <point x="401.77522663390477" y="667.0"/>
      <point x="378.39400485020235" y="557.0" type="curve" smooth="yes"/>
      <point x="253.62330314989933" y="-30.0" type="line" smooth="yes"/>
      <point x="241.29502257303807" y="-88.0"/>
      <point x="209.76855196961748" y="-114.0"/>
      <point x="163.76855196961748" y="-114.0" type="curve"/>
      <point x="143.76855196961748" y="-114.0"/>
      <point x="127.61877821629757" y="-110.0"/>
      <point x="112.68156102464768" y="-105.0" type="curve"/>
    </contour>
    <contour>
      <point x="262.4621043264596" y="435.0" type="line"/>
      <point x="596.4621043264597" y="435.0" type="line"/>
      <point x="613.4666292600614" y="515.0" type="line"/>
      <point x="279.4666292600614" y="515.0" type="line"/>
    </contour>
  </outline>
</glyph>
<glyph name="Delta" format="1">
  <advance width="636"/>
  <unicode hex="0394"/>
  <outline>
    <contour>
      <point x="20.0" y="0.0" type="line"/>
      <point x="120.0" y="0.0" type="line"/>
      <point x="460.53393700201326" y="600.0" type="line"/>
      <point x="471.66402755231525" y="690.0" type="line"/>
      <point x="424.66402755231525" y="690.0" type="line"/>
    </contour>
    <contour>
      <point x="90.0" y="0.0" type="line"/>
      <point x="546.0" y="0.0" type="line"/>
      <point x="564.2798643036219" y="86.0" type="line"/>
      <point x="108.2798643036219" y="86.0" type="line"/>
    </contour>
    <contour>
      <point x="426.53393700201326" y="600.0" type="line"/>
      <point x="512.0" y="0.0" type="line"/>
      <point x="616.0" y="0.0" type="line"/>
      <point x="504.66402755231525" y="690.0" type="line"/>
      <point x="449.66402755231525" y="690.0" type="line"/>
    </contour>
  </outline>
</glyph>
<glyph name="mu" format="1">
  <advance width="600"/>
  <unicode hex="03BC"/>
  <outline>
    <contour>
      <point x="45.677036091045906" y="-185.0" type="line"/>
      <point x="137.67703609104592" y="-185.0" type="line"/>
      <point x="192.50678740040266" y="120.0" type="line"/>
      <point x="170.50678740040266" y="120.0" type="line"/>
      <point x="151.8018099734407" y="32.0"/>
      <point x="196.87443438329979" y="-10.0"/>
      <point x="269.8744343832998" y="-10.0" type="curve" smooth="yes"/>
      <point x="332.8744343832998" y="-10.0"/>
      <point x="396.37669685010064" y="30.0"/>
      <point x="451.0673077419519" y="85.0" type="curve"/>
      <point x="466.3713801821935" y="157.0" type="line"/>
      <point x="411.74355209869236" y="107.0"/>
      <point x="355.3668552485917" y="77.0"/>
      <point x="302.3668552485917" y="77.0" type="curve" smooth="yes"/>
      <point x="238.36685524859172" y="77.0"/>
      <point x="202.0816742770626" y="118.0"/>
      <point x="221.84943451237467" y="211.0" type="curve" smooth="yes"/>
      <point x="286.4666292600614" y="515.0" type="line"/>
      <point x="194.46662926006138" y="515.0" type="line"/>
    </contour>
    <contour>
      <point x="446.0574661404429" y="132.0" type="line"/>
      <point x="440.7919683719318" y="79.0" type="line"/>
      <point x="431.4009049867204" y="16.0"/>
      <point x="462.8744343832998" y="-10.0"/>
      <point x="505.8744343832998" y="-10.0" type="curve"/>
      <point x="520.8744343832998" y="-10.0"/>
      <point x="540.7246606299799" y="-6.0"/>
      <point x="556.0" y="0.0" type="curve"/>
      <point x="571.9417421252516" y="75.0" type="line"/>
      <point x="563.3040724402416" y="72.0"/>
      <point x="558.0915158785716" y="71.0"/>
      <point x="550.0915158785716" y="71.0" type="curve"/>
      <point x="535.0915158785716" y="71.0"/>
      <point x="526.7919683719317" y="79.0"/>
      <point x="531.2556561670023" y="100.0" type="curve" smooth="yes"/>
      <point x="619.4666292600614" y="515.0" type="line"/>
      <point x="527.4666292600614" y="515.0" type="line"/>
    </contour>
  </outline>
</glyph>
<glyph name="pi" format="1">
  <advance width="600"/>
  <unicode hex="03C0"/>
  <outline>
    <contour>
      <point x="115.0" y="0.0" type="line"/>
      <point x="207.0" y="0.0" type="line"/>
      <point x="316.4666292600614" y="515.0" type="line"/>
      <point x="224.46662926006138" y="515.0" type="line"/>
    </contour>
    <contour>
      <point x="411.3812217837024" y="110.0" type="line" smooth="yes"/>
      <point x="392.25113123340043" y="20.0"/>
      <point x="417.8744343832998" y="-10.0"/>
      <point x="475.8744343832998" y="-10.0" type="curve" smooth="yes"/>
      <point x="490.8744343832998" y="-10.0"/>
      <point x="510.7246606299799" y="-6.0"/>
      <point x="526.0" y="0.0" type="curve"/>
      <point x="541.9417421252516" y="75.0" type="line"/>
      <point x="533.3040724402416" y="72.0"/>
      <point x="528.0915158785716" y="71.0"/>
      <point x="520.0915158785716" y="71.0" type="curve" smooth="yes"/>
      <point x="505.09151587857156" y="71.0"/>
      <point x="496.7919683719318" y="79.0"/>
      <point x="501.2556561670022" y="100.0" type="curve" smooth="yes"/>
      <point x="589.4666292600614" y="515.0" type="line"/>
      <point x="497.4666292600614" y="515.0" type="line"/>
    </contour>
    <contour>
      <point x="132.2495477647896" y="434.0" type="line"/>
      <point x="647.2495477647896" y="434.0" type="line"/>
      <point x="664.4666292600614" y="515.0" type="line"/>
      <point x="149.46662926006138" y="515.0" type="line"/>
    </contour>
  </outline>
</glyph>
<glyph name="dagger" format="1">
  <advance width="442"/>
  <unicode hex="2020"/>
  <outline>
    <contour>
      <point x="140.67703609104592" y="-185.0" type="line"/>
      <point x="222.67703609104592" y="-185.0" type="line"/>
      <point x="415.0407244024159" y="720.0" type="line"/>
      <point x="333.0407244024159" y="720.0" type="line"/>
    </contour>
    <contour>
      <point x="124.58766994315985" y="445.0" type="line"/>
      <point x="506.5876699431599" y="445.0" type="line"/>
      <point x="521.4666292600614" y="515.0" type="line"/>
      <point x="139.46662926006138" y="515.0" type="line"/>
    </contour>
  </outline>
</glyph>
<glyph name="daggerdbl" format="1">
  <advance width="442"/>
  <unicode hex="2021"/>
  <outline>
    <contour>
      <point x="140.67703609104592" y="-185.0" type="line"/>
      <point x="222.67703609104592" y="-185.0" type="line"/>
      <point x="415.0407244024159" y="720.0" type="line"/>
      <point x="333.0407244024159" y="720.0" type="line"/>
    </contour>
    <contour>
      <point x="124.58766994315985" y="445.0" type="line"/>
      <point x="506.5876699431599" y="445.0" type="line"/>
      <point x="521.4666292600614" y="515.0" type="line"/>
      <point x="139.46662926006138" y="515.0" type="line"/>
    </contour>
    <contour>
      <point x="34.25113123340044" y="20.0" type="line"/>
      <point x="416.25113123340043" y="20.0" type="line"/>
      <point x="431.130090550302" y="90.0" type="line"/>
      <point x="49.130090550301986" y="90.0" type="line"/>
    </contour>
  </outline>
</glyph>
<glyph name="bullet" format="1">
  <advance width="400"/>
  <unicode hex="2022"/>
  <outline>
    <contour>
      <point x="141.64140288430642" y="290.0" type="curve" smooth="yes"/>
      <point x="126.76244356740486" y="220.0"/>
      <point x="166.13461548390376" y="170.0"/>
      <point x="236.13461548390376" y="170.0" type="curve" smooth="yes"/>
      <point x="306.13461548390376" y="170.0"/>
      <point x="366.7624435674049" y="220.0"/>
      <point x="381.64140288430644" y="290.0" type="curve" smooth="yes"/>
      <point x="396.52036220120794" y="360.0"/>
      <point x="357.1481902847091" y="410.0"/>
      <point x="287.1481902847091" y="410.0" type="curve" smooth="yes"/>
      <point x="217.14819028470907" y="410.0"/>
      <point x="156.52036220120794" y="360.0"/>
    </contour>
  </outline>
</glyph>
<glyph name="perthousand" format="1">
  <advance width="1343"/>
  <unicode hex="2030"/>
  <outline>
    <contour>
      <point x="185.10429894507146" y="518.0" type="curve" smooth="yes"/>
      <point x="162.3607468463791" y="411.0"/>
      <point x="223.63156128279746" y="337.0"/>
      <point x="317.63156128279746" y="337.0" type="curve" smooth="yes"/>
      <point x="411.63156128279746" y="337.0"/>
      <point x="504.36074684637913" y="411.0"/>
      <point x="527.1042989450715" y="518.0" type="curve" smooth="yes"/>
      <point x="549.8478510437639" y="625.0"/>
      <point x="488.78959316901546" y="700.0"/>
      <point x="394.78959316901546" y="700.0" type="curve" smooth="yes"/>
      <point x="300.78959316901546" y="700.0"/>
      <point x="207.84785104376382" y="625.0"/>
    </contour>
    <contour>
      <point x="272.1042989450715" y="518.0" type="curve" smooth="yes"/>
      <point x="286.34558857696294" y="585.0"/>
      <point x="332.27296416710385" y="627.0"/>
      <point x="379.27296416710385" y="627.0" type="curve" smooth="yes"/>
      <point x="426.27296416710385" y="627.0"/>
      <point x="454.34558857696294" y="585.0"/>
      <point x="440.1042989450715" y="518.0" type="curve" smooth="yes"/>
      <point x="425.86300931318" y="451.0"/>
      <point x="380.1481902847091" y="410.0"/>
      <point x="333.1481902847091" y="410.0" type="curve" smooth="yes"/>
      <point x="286.1481902847091" y="410.0"/>
      <point x="257.86300931318" y="451.0"/>
    </contour>
    <contour>
      <point x="198.0" y="0.0" type="line"/>
      <point x="295.0" y="0.0" type="line"/>
      <point x="891.6640275523152" y="690.0" type="line"/>
      <point x="794.6640275523152" y="690.0" type="line"/>
    </contour>
    <contour>
      <point x="562.3471720455738" y="171.0" type="curve" smooth="yes"/>
      <point x="539.6036199468814" y="64.0"/>
      <point x="600.8744343832998" y="-10.0"/>
      <point x="694.8744343832998" y="-10.0" type="curve" smooth="yes"/>
      <point x="788.8744343832998" y="-10.0"/>
      <point x="881.6036199468814" y="64.0"/>
      <point x="904.3471720455738" y="171.0" type="curve" smooth="yes"/>
      <point x="927.0907241442661" y="278.0"/>
      <point x="866.0324662695178" y="353.0"/>
      <point x="772.0324662695178" y="353.0" type="curve" smooth="yes"/>
      <point x="678.0324662695178" y="353.0"/>
      <point x="585.0907241442661" y="278.0"/>
    </contour>
    <contour>
      <point x="649.3471720455738" y="171.0" type="curve" smooth="yes"/>
      <point x="663.5884616774653" y="238.0"/>
      <point x="709.5158372676062" y="280.0"/>
      <point x="756.5158372676062" y="280.0" type="curve" smooth="yes"/>
      <point x="803.5158372676062" y="280.0"/>
      <point x="831.5884616774653" y="238.0"/>
      <point x="817.3471720455738" y="171.0" type="curve" smooth="yes"/>
      <point x="803.1058824136823" y="104.0"/>
      <point x="757.3910633852114" y="63.0"/>
      <point x="710.3910633852114" y="63.0" type="curve" smooth="yes"/>
      <point x="663.3910633852114" y="63.0"/>
      <point x="635.1058824136823" y="104.0"/>
    </contour>
    <contour>
      <point x="962.3471720455738" y="171.0" type="curve" smooth="yes"/>
      <point x="939.6036199468814" y="64.0"/>
      <point x="1000.8744343832998" y="-10.0"/>
      <point x="1094.8744343832998" y="-10.0" type="curve" smooth="yes"/>
      <point x="1188.8744343832998" y="-10.0"/>
      <point x="1281.6036199468815" y="64.0"/>
      <point x="1304.3471720455739" y="171.0" type="curve" smooth="yes"/>
      <point x="1327.0907241442662" y="278.0"/>
      <point x="1266.0324662695177" y="353.0"/>
      <point x="1172.0324662695177" y="353.0" type="curve" smooth="yes"/>
      <point x="1078.0324662695177" y="353.0"/>
      <point x="985.0907241442661" y="278.0"/>
    </contour>
    <contour>
      <point x="1049.3471720455739" y="171.0" type="curve" smooth="yes"/>
      <point x="1063.5884616774654" y="238.0"/>
      <point x="1109.5158372676062" y="280.0"/>
      <point x="1156.5158372676062" y="280.0" type="curve" smooth="yes"/>
      <point x="1203.5158372676062" y="280.0"/>
      <point x="1231.5884616774654" y="238.0"/>
      <point x="1217.3471720455739" y="171.0" type="curve" smooth="yes"/>
      <point x="1203.1058824136824" y="104.0"/>
      <point x="1157.3910633852113" y="63.0"/>
      <point x="1110.3910633852113" y="63.0" type="curve" smooth="yes"/>
      <point x="1063.3910633852113" y="63.0"/>
      <point x="1035.1058824136824" y="104.0"/>
    </contour>
  </outline>
</glyph>
<glyph name="guilsinglleft" format="1">
  <advance width="299"/>
  <unicode hex="2039"/>
  <outline>
    <contour>
      <point x="97.50147073249546" y="247.0" type="line"/>
      <point x="182.64219461861182" y="83.0" type="line"/>
      <point x="281.6421946186118" y="83.0" type="line"/>
      <point x="167.2790725693165" y="293.0" type="line"/>
      <point x="107.06651600764647" y="292.0" type="line"/>
    </contour>
    <contour>
      <point x="97.9265838558355" y="249.0" type="line"/>
      <point x="157.71402729416548" y="248.0" type="line"/>
      <point x="361.35090524487015" y="458.0" type="line"/>
      <point x="262.35090524487015" y="458.0" type="line"/>
      <point x="107.4916291309865" y="294.0" type="line"/>
    </contour>
  </outline>
</glyph>
<glyph name="numero" format="1">
  <advance width="1126"/>
  <unicode hex="2116"/>
  <outline>
    <contour>
      <point x="850.1527152183108" y="490.0" type="curve" smooth="yes"/>
      <point x="819.9696834611677" y="348.0"/>
      <point x="877.5158372676062" y="280.0"/>
      <point x="965.5158372676062" y="280.0" type="curve" smooth="yes"/>
      <point x="1053.5158372676062" y="280.0"/>
      <point x="1139.9696834611677" y="348.0"/>
      <point x="1170.1527152183107" y="490.0" type="curve" smooth="yes"/>
      <point x="1200.335746975454" y="632.0"/>
      <point x="1142.7895931690155" y="700.0"/>
      <point x="1054.7895931690155" y="700.0" type="curve" smooth="yes"/>
      <point x="966.7895931690155" y="700.0"/>
      <point x="880.335746975454" y="632.0"/>
    </contour>
    <contour>
      <point x="930.1527152183108" y="490.0" type="curve" smooth="yes"/>
      <point x="950.558145138633" y="586.0"/>
      <point x="994.910633852114" y="630.0"/>
      <point x="1039.910633852114" y="630.0" type="curve" smooth="yes"/>
      <point x="1084.910633852114" y="630.0"/>
      <point x="1110.5581451386329" y="586.0"/>
      <point x="1090.1527152183107" y="490.0" type="curve" smooth="yes"/>
      <point x="1069.7472852979888" y="394.0"/>
      <point x="1025.3947965845077" y="350.0"/>
      <point x="980.3947965845077" y="350.0" type="curve" smooth="yes"/>
      <point x="935.3947965845077" y="350.0"/>
      <point x="909.7472852979887" y="394.0"/>
    </contour>
    <contour>
      <point x="781.5067874004027" y="120.0" type="line"/>
      <point x="1081.5067874004026" y="120.0" type="line"/>
      <point x="1098.5113123340045" y="200.0" type="line"/>
      <point x="798.5113123340044" y="200.0" type="line"/>
    </contour>
    <component base="N"/>
  </outline>
</glyph>
<glyph name="partialdiff" format="1">
  <advance width="660"/>
  <unicode hex="2202"/>
  <outline>
    <contour>
      <point x="292.02714960161063" y="480.0"/>
      <point x="146.52036220120794" y="360.0"/>
      <point x="112.51131233400443" y="200.0" type="curve" smooth="yes"/>
      <point x="84.87895931690154" y="70.0"/>
      <point x="147.87443438329979" y="-10.0"/>
      <point x="257.8744343832998" y="-10.0" type="curve" smooth="yes"/>
      <point x="417.8744343832998" y="-10.0"/>
      <point x="583.7579186338031" y="140.0"/>
      <point x="636.8970590513086" y="390.0" type="curve" smooth="yes"/>
      <point x="673.0316745352123" y="560.0"/>
      <point x="635.1662900191161" y="730.0"/>
      <point x="465.16629001911616" y="730.0" type="curve" smooth="yes"/>
      <point x="425.16629001911616" y="730.0"/>
      <point x="383.890950649096" y="724.0"/>
      <point x="351.9779415940658" y="715.0" type="curve"/>
      <point x="344.97341666046407" y="635.0" type="line"/>
      <point x="366.4613125921542" y="642.0"/>
      <point x="398.1617650855144" y="650.0"/>
      <point x="428.1617650855144" y="650.0" type="curve" smooth="yes"/>
      <point x="548.1617650855144" y="650.0"/>
      <point x="574.6549776851117" y="530.0"/>
      <point x="544.8970590513086" y="390.0" type="curve" smooth="yes"/>
      <point x="504.5113123340044" y="200.0"/>
      <point x="395.09151587857156" y="71.0"/>
      <point x="285.09151587857156" y="71.0" type="curve" smooth="yes"/>
      <point x="223.09151587857156" y="71.0"/>
      <point x="187.38122178370244" y="110.0"/>
      <point x="206.51131233400443" y="200.0" type="curve" smooth="yes"/>
      <point x="232.0180997344071" y="320.0"/>
      <point x="324.8100681063388" y="399.0"/>
      <point x="424.8100681063388" y="399.0" type="curve" smooth="yes"/>
      <point x="484.8100681063388" y="399.0"/>
      <point x="526.370588447888" y="364.0"/>
      <point x="531.8925341177069" y="310.0" type="curve"/>
      <point x="561.7714934346084" y="380.0" type="line"/>
      <point x="552.3993215181096" y="430.0"/>
      <point x="522.0271496016106" y="480.0"/>
      <point x="430.02714960161063" y="480.0" type="curve" smooth="yes"/>
    </contour>
  </outline>
</glyph>
<glyph name="bulletoperator" format="1">
  <advance width="660"/>
  <unicode hex="2219"/>
  <outline>
    <contour>
      <point x="271.64140288430644" y="290.0" type="curve" smooth="yes"/>
      <point x="256.7624435674049" y="220.0"/>
      <point x="296.13461548390376" y="170.0"/>
      <point x="366.13461548390376" y="170.0" type="curve" smooth="yes"/>
      <point x="436.13461548390376" y="170.0"/>
      <point x="496.7624435674049" y="220.0"/>
      <point x="511.64140288430644" y="290.0" type="curve" smooth="yes"/>
      <point x="526.520362201208" y="360.0"/>
      <point x="487.1481902847091" y="410.0"/>
      <point x="417.1481902847091" y="410.0" type="curve" smooth="yes"/>
      <point x="347.1481902847091" y="410.0"/>
      <point x="286.52036220120794" y="360.0"/>
    </contour>
  </outline>
</glyph>
<glyph name="radical" format="1">
  <advance width="700"/>
  <unicode hex="221A"/>
  <outline>
    <contour>
      <point x="170.1436653511073" y="330.0" type="line"/>
      <point x="262.6770360910459" y="-185.0" type="line"/>
      <point x="315.6770360910459" y="-185.0" type="line"/>
      <point x="333.8071266413479" y="-95.0" type="line"/>
      <point x="269.1436653511073" y="330.0" type="line"/>
    </contour>
    <contour>
      <point x="307.8071266413479" y="-95.0" type="line"/>
      <point x="289.6770360910459" y="-185.0" type="line"/>
      <point x="334.6770360910459" y="-185.0" type="line"/>
      <point x="856.6640275523152" y="690.0" type="line"/>
      <point x="761.6640275523152" y="690.0" type="line"/>
    </contour>
    <contour>
      <point x="73.13914041750553" y="250.0" type="line"/>
      <point x="243.13914041750553" y="250.0" type="line"/>
      <point x="260.1436653511073" y="330.0" type="line"/>
      <point x="90.1436653511073" y="330.0" type="line"/>
    </contour>
  </outline>
</glyph>
<glyph name="infinity" format="1">
  <advance width="660"/>
  <unicode hex="221E"/>
  <outline>
    <contour>
      <point x="425.5158372676062" y="280.0" type="curve" smooth="yes"/>
      <point x="356.0960408121733" y="151.0"/>
      <point x="296.95610866036236" y="108.0"/>
      <point x="224.9561086603624" y="108.0" type="curve" smooth="yes"/>
      <point x="140.9561086603624" y="108.0"/>
      <point x="88.26018110060397" y="180.0"/>
      <point x="111.64140288430642" y="290.0" type="curve" smooth="yes"/>
      <point x="134.5975115446688" y="398.0"/>
      <point x="212.32669710825044" y="472.0"/>
      <point x="296.3266971082504" y="472.0" type="curve" smooth="yes"/>
      <point x="368.3266971082504" y="472.0"/>
      <point x="406.84864277806923" y="418.0"/>
      <point x="399.167873487727" y="316.0" type="curve"/>
      <point x="361.3032807059362" y="279.0" type="line"/>
      <point x="364.45757939285784" y="355.0"/>
      <point x="335.02262466800886" y="400.0"/>
      <point x="287.02262466800886" y="400.0" type="curve" smooth="yes"/>
      <point x="237.02262466800886" y="400.0"/>
      <point x="191.45757939285784" y="355.0"/>
      <point x="177.64140288430642" y="290.0" type="curve" smooth="yes"/>
      <point x="161.69966075905475" y="215.0"/>
      <point x="190.26018110060397" y="180.0"/>
      <point x="233.26018110060397" y="180.0" type="curve" smooth="yes"/>
      <point x="272.260181100604" y="180.0"/>
      <point x="311.4871041973847" y="214.0"/>
      <point x="357.76696850100666" y="300.0" type="curve" smooth="yes"/>
      <point x="426.97420839476945" y="428.0"/>
      <point x="486.3266971082504" y="472.0"/>
      <point x="558.3266971082504" y="472.0" type="curve" smooth="yes"/>
      <point x="642.3266971082504" y="472.0"/>
      <point x="695.0226246680088" y="400.0"/>
      <point x="671.6414028843064" y="290.0" type="curve" smooth="yes"/>
      <point x="648.6852942239441" y="182.0"/>
      <point x="570.9561086603624" y="108.0"/>
      <point x="486.95610866036236" y="108.0" type="curve" smooth="yes"/>
      <point x="414.95610866036236" y="108.0"/>
      <point x="376.4341629905436" y="162.0"/>
      <point x="384.11493228088585" y="264.0" type="curve"/>
      <point x="421.97952506267666" y="301.0" type="line"/>
      <point x="418.825226375755" y="225.0"/>
      <point x="448.260181100604" y="180.0"/>
      <point x="496.260181100604" y="180.0" type="curve" smooth="yes"/>
      <point x="546.260181100604" y="180.0"/>
      <point x="591.8252263757549" y="225.0"/>
      <point x="605.6414028843064" y="290.0" type="curve" smooth="yes"/>
      <point x="621.583145009558" y="365.0"/>
      <point x="593.0226246680088" y="400.0"/>
      <point x="550.0226246680088" y="400.0" type="curve" smooth="yes"/>
      <point x="511.02262466800886" y="400.0"/>
      <point x="471.7957015712281" y="366.0"/>
    </contour>
  </outline>
</glyph>
<glyph name="notequal" format="1">
  <advance width="660"/>
  <unicode hex="2260"/>
  <outline>
    <contour>
      <point x="130.63235301710287" y="130.0" type="line"/>
      <point x="584.6323530171029" y="130.0" type="line"/>
      <point x="601.6368779507046" y="210.0" type="line"/>
      <point x="147.63687795070464" y="210.0" type="line"/>
    </contour>
    <contour>
      <point x="181.6459278179082" y="370.0" type="line"/>
      <point x="635.6459278179082" y="370.0" type="line"/>
      <point x="652.65045275151" y="450.0" type="line"/>
      <point x="198.65045275150996" y="450.0" type="line"/>
    </contour>
    <contour>
      <point x="173.62330314989933" y="-30.0" type="line"/>
      <point x="253.62330314989933" y="-30.0" type="line"/>
      <point x="609.6595026187135" y="610.0" type="line"/>
      <point x="529.6595026187135" y="610.0" type="line"/>
    </contour>
  </outline>
</glyph>
<glyph name="lessequal" format="1">
  <advance width="660"/>
  <unicode hex="2264"/>
  <outline>
    <contour>
      <point x="169.80554317273706" y="319.0" type="line"/>
      <point x="559.9462670588534" y="155.0" type="line"/>
      <point x="578.6512444858154" y="243.0" type="line"/>
      <point x="262.0082581328981" y="367.0" type="line"/>
      <point x="180.0082581328981" y="367.0" type="line"/>
    </contour>
    <contour>
      <point x="175.33201377615762" y="345.0" type="line"/>
      <point x="257.3320137761576" y="345.0" type="line"/>
      <point x="626.6890274232404" y="469.0" type="line"/>
      <point x="644.9688917268622" y="555.0" type="line"/>
      <point x="185.10961561297864" y="391.0" type="line"/>
    </contour>
    <contour>
      <point x="116.81617650855144" y="65.0" type="line"/>
      <point x="540.8161765085514" y="65.0" type="line"/>
      <point x="556.7579186338031" y="140.0" type="line"/>
      <point x="132.7579186338031" y="140.0" type="line"/>
    </contour>
  </outline>
</glyph>
<glyph name="J.alt" format="1">
  <advance width="573"/>
  <outline>
    <contour>
      <point x="67.74355209869236" y="107.0" type="line"/>
      <point x="94.28970590513086" y="39.0"/>
      <point x="165.87443438329979" y="-10.0"/>
      <point x="252.87443438329979" y="-10.0" type="curve" smooth="yes"/>
      <point x="379.8744343832998" y="-10.0"/>
      <point x="498.94174212525166" y="75.0"/>
      <point x="533.1633485541253" y="236.0" type="curve" smooth="yes"/>
      <point x="629.6640275523152" y="690.0" type="line"/>
      <point x="535.6640275523152" y="690.0" type="line"/>
      <point x="441.2889141708254" y="246.0" type="line" smooth="yes"/>
      <point x="416.6323530171029" y="130.0"/>
      <point x="353.5794118102617" y="78.0"/>
      <point x="270.5794118102617" y="78.0" type="curve" smooth="yes"/>
      <point x="203.57941181026172" y="78.0"/>
      <point x="165.29423083873263" y="119.0"/>
      <point x="150.6467195522136" y="163.0" type="curve"/>
    </contour>
    <contour>
      <point x="582.6640275523152" y="690.0" type="move" name="top"/>
    </contour>
  </outline>
</glyph>
<glyph name="a.alt" format="1">
  <advance width="548"/>
  <outline>
    <contour>
      <point x="88.05746614044293" y="132.0" type="curve"/>
      <point x="69.35248871348097" y="44.0"/>
      <point x="124.87443438329979" y="-10.0"/>
      <point x="199.87443438329979" y="-10.0" type="curve"/>
      <point x="273.8744343832998" y="-10.0"/>
      <point x="348.5892534117707" y="31.0"/>
      <point x="399.0673077419519" y="85.0" type="curve"/>
      <point x="414.3713801821935" y="157.0" type="line"/>
      <point x="356.3184389753523" y="105.0"/>
      <point x="294.7291855635816" y="74.0"/>
      <point x="237.72918556358164" y="74.0" type="curve"/>
      <point x="196.72918556358164" y="74.0"/>
      <point x="174.83054304366217" y="98.0"/>
      <point x="183.7579186338031" y="140.0" type="curve"/>
      <point x="192.89785078561405" y="183.0"/>
      <point x="232.61266981408494" y="224.0"/>
      <point x="365.37590511579526" y="237.0" type="curve" smooth="yes"/>
      <point x="425.65124448581537" y="243.0" type="line"/>
      <point x="439.4674209943668" y="308.0" type="line"/>
      <point x="376.04230787102676" y="306.0" type="line" smooth="yes"/>
      <point x="187.76696850100663" y="300.0"/>
      <point x="106.97500012907489" y="221.0"/>
    </contour>
    <contour>
      <point x="175.32669710825044" y="472.0" type="curve"/>
      <point x="190.7472852979887" y="394.0" type="line"/>
      <point x="241.0611993397393" y="419.0"/>
      <point x="288.88721744979966" y="437.0"/>
      <point x="341.88721744979966" y="437.0" type="curve"/>
      <point x="414.88721744979966" y="437.0"/>
      <point x="451.4058705898078" y="401.80303030303025"/>
      <point x="432.742760364387" y="314.0" type="curve" smooth="yes"/>
      <point x="394.0574661404429" y="132.0" type="line"/>
      <point x="388.7919683719318" y="79.0" type="line"/>
      <point x="379.4009049867204" y="16.0"/>
      <point x="410.8744343832998" y="-10.0"/>
      <point x="453.8744343832998" y="-10.0" type="curve"/>
      <point x="468.8744343832998" y="-10.0"/>
      <point x="488.7246606299799" y="-6.0"/>
      <point x="504.0" y="0.0" type="curve"/>
      <point x="519.9417421252516" y="75.0" type="line"/>
      <point x="511.3040724402416" y="72.0"/>
      <point x="506.09151587857156" y="71.0"/>
      <point x="498.09151587857156" y="71.0" type="curve"/>
      <point x="483.09151587857156" y="71.0"/>
      <point x="474.7919683719318" y="79.0"/>
      <point x="479.2556561670022" y="100.0" type="curve" smooth="yes"/>
      <point x="527.0808825427572" y="325.0" type="line" smooth="yes"/>
      <point x="555.6241922527315" y="459.2857142857142"/>
      <point x="482.5921948767616" y="525.0"/>
      <point x="369.5921948767616" y="525.0" type="curve"/>
      <point x="308.5921948767616" y="525.0"/>
      <point x="228.4908373966811" y="501.0"/>
    </contour>
    <contour>
      <point x="374.4666292600614" y="515.0" type="move" name="top"/>
    </contour>
    <contour>
      <point x="265.0" y="0.0" type="move" name="bottom"/>
    </contour>
    <contour>
      <point x="424.0" y="0.0" type="move" name="ogonek"/>
    </contour>
  </outline>
</glyph>
